<svg preserveAspectRatio="none" width="100%" height="100%" overflow="visible" style="display: block;" viewBox="0 0 4 4" fill="none" xmlns="http://www.w3.org/2000/svg">
<path id="&#226;&#128;&#187;" d="M0.235616 3.94014L0.0657534 3.77143L1.82466 1.99184L0.060274 0.228571L0.230137 0.0544217L2 1.82313L3.77534 0.0544217L3.94521 0.228571L2.17534 1.99184L3.93973 3.77143L3.76438 3.94014L2 2.16599L0.235616 3.94014ZM0.230137 2.28571C0.157078 2.28571 0.100457 2.26395 0.060274 2.22041C0.0200913 2.17324 0 2.10431 0 2.01361C0 1.9229 0.0200913 1.85578 0.060274 1.81224C0.100457 1.76508 0.157078 1.7415 0.230137 1.7415C0.306849 1.7415 0.365297 1.76508 0.405479 1.81224C0.445662 1.85578 0.465753 1.9229 0.465753 2.01361C0.465753 2.10431 0.445662 2.17324 0.405479 2.22041C0.365297 2.26395 0.306849 2.28571 0.230137 2.28571ZM1.96164 4C1.9105 4 1.86849 3.98912 1.83562 3.96735C1.80274 3.94558 1.77717 3.91474 1.7589 3.87483C1.74429 3.83492 1.73699 3.78594 1.73699 3.72789C1.73699 3.66621 1.74429 3.61542 1.7589 3.57551C1.77717 3.5356 1.80274 3.50658 1.83562 3.48844C1.86849 3.46667 1.9105 3.45578 1.96164 3.45578C2.01644 3.45578 2.06027 3.46667 2.09315 3.48844C2.12968 3.50658 2.15525 3.5356 2.16986 3.57551C2.18813 3.61542 2.19726 3.66621 2.19726 3.72789C2.19726 3.78594 2.18813 3.83492 2.16986 3.87483C2.15525 3.91474 2.12968 3.94558 2.09315 3.96735C2.06027 3.98912 2.01644 4 1.96164 4ZM1.96164 0.544218C1.9105 0.544218 1.86849 0.535147 1.83562 0.517007C1.80274 0.495238 1.77717 0.464399 1.7589 0.42449C1.74429 0.380952 1.73699 0.330159 1.73699 0.272109C1.73699 0.210431 1.74429 0.159637 1.7589 0.119728C1.77717 0.0798185 1.80274 0.0507935 1.83562 0.032653C1.86849 0.0108843 1.9105 0 1.96164 0C2.01644 0 2.06027 0.0108843 2.09315 0.032653C2.12968 0.0507935 2.15525 0.0798185 2.16986 0.119728C2.18813 0.159637 2.19726 0.210431 2.19726 0.272109C2.19726 0.330159 2.18813 0.380952 2.16986 0.42449C2.15525 0.464399 2.12968 0.495238 2.09315 0.517007C2.06027 0.535147 2.01644 0.544218 1.96164 0.544218ZM3.76986 2.28571C3.6968 2.28571 3.64018 2.26395 3.6 2.22041C3.55982 2.17324 3.53973 2.10431 3.53973 2.01361C3.53973 1.9229 3.55982 1.85578 3.6 1.81224C3.64018 1.76508 3.6968 1.7415 3.76986 1.7415C3.84658 1.7415 3.9032 1.76508 3.93973 1.81224C3.97991 1.85578 4 1.9229 4 2.01361C4 2.10431 3.97991 2.17324 3.93973 2.22041C3.9032 2.26395 3.84658 2.28571 3.76986 2.28571Z" fill="var(--fill-0, white)"/>
</svg>
