<svg preserveAspectRatio="none" width="100%" height="100%" overflow="visible" style="display: block;" viewBox="0 0 185.714 35.0408" fill="none" xmlns="http://www.w3.org/2000/svg">
<g id="Frame 628437">
<rect width="185.714" height="35.0408" rx="4" fill="var(--fill-0, white)"/>
<g id="&#226;&#128;&#156;&#227;&#129;&#130;&#227;&#129;&#174;&#230;&#153;&#130;&#227;&#129;&#174;&#231;&#153;&#187;&#229;&#163;&#135;&#226;&#128;&#157;&#227;&#129;&#140;&#227;&#128;&#129;">
<path d="M14.1565 10.9935L14.8404 12.166C14.163 12.3354 13.6158 12.6546 13.1989 13.1236C12.782 13.5795 12.5736 14.055 12.5736 14.5501C12.5736 14.6022 12.5736 14.6543 12.5736 14.7064C12.5866 14.7585 12.5931 14.8106 12.5931 14.8628C12.7364 14.6804 12.9123 14.5371 13.1208 14.4328C13.3292 14.3156 13.5376 14.257 13.7461 14.257C14.1369 14.257 14.4691 14.3872 14.7427 14.6478C15.0293 14.8953 15.1726 15.2471 15.1726 15.703C15.1726 16.146 15.0098 16.4977 14.6841 16.7583C14.3584 17.0058 13.9676 17.1296 13.5116 17.1296C12.8341 17.1296 12.274 16.882 11.831 16.387C11.3881 15.8789 11.1666 15.2406 11.1666 14.4719C11.1666 13.6381 11.4402 12.9281 11.9873 12.3419C12.5345 11.7556 13.2575 11.3062 14.1565 10.9935ZM18.8855 10.9935L19.5695 12.166C18.892 12.3354 18.3449 12.6546 17.928 13.1236C17.5111 13.5795 17.3026 14.055 17.3026 14.5501C17.3026 14.6022 17.3026 14.6543 17.3026 14.7064C17.3157 14.7585 17.3222 14.8106 17.3222 14.8628C17.4655 14.6804 17.6414 14.5371 17.8498 14.4328C18.0583 14.3156 18.2667 14.257 18.4751 14.257C18.866 14.257 19.1982 14.3872 19.4718 14.6478C19.7584 14.8953 19.9017 15.2471 19.9017 15.703C19.9017 16.146 19.7388 16.4977 19.4131 16.7583C19.0874 17.0058 18.6966 17.1296 18.2406 17.1296C17.5632 17.1296 17.003 16.882 16.5601 16.387C16.1171 15.8789 15.8957 15.2406 15.8957 14.4719C15.8957 13.6381 16.1692 12.9281 16.7164 12.3419C17.2636 11.7556 17.9866 11.3062 18.8855 10.9935Z" fill="var(--fill-0, #3D3D5C)"/>
<path d="M31.8874 26.4704C31.8222 26.1317 31.6854 25.7213 31.477 25.2393C31.2816 24.7573 31.0536 24.3534 30.793 24.0277C32.3824 23.8323 33.5354 23.3959 34.2519 22.7185C34.9814 22.041 35.3462 21.1812 35.3462 20.139C35.3462 19.1358 34.9293 18.3607 34.0956 17.8135C33.6135 18.6734 33.0924 19.4746 32.5322 20.2171C31.972 20.9597 31.3858 21.6241 30.7735 22.2104C30.8386 22.4188 30.9103 22.6338 30.9884 22.8552C31.0666 23.0637 31.1513 23.2656 31.2425 23.461C30.995 23.5262 30.7083 23.6304 30.3827 23.7737C30.057 23.917 29.7443 24.0668 29.4447 24.2232C29.1581 24.3665 28.9236 24.5032 28.7412 24.6335C28.6891 24.5293 28.6369 24.4251 28.5848 24.3209C28.5458 24.2166 28.5067 24.1124 28.4676 24.0082C27.8032 24.399 27.1388 24.6856 26.4743 24.868C25.8099 25.0374 25.1651 25.0765 24.5397 24.9853C24.0447 24.9201 23.5887 24.6596 23.1718 24.2036C22.7549 23.7476 22.5465 23.0767 22.5465 22.1908C22.5465 21.2398 22.7484 20.3604 23.1523 19.5527C23.5561 18.732 24.1098 18.0024 24.8133 17.3641C25.5298 16.7257 26.3441 16.2046 27.256 15.8007C27.256 15.0973 27.2756 14.4068 27.3146 13.7293C26.5981 13.7815 25.9272 13.8075 25.3019 13.8075C24.6765 13.8075 24.1554 13.7815 23.7385 13.7293L23.5627 11.1303C24.0577 11.1955 24.6505 11.2411 25.3409 11.2671C26.0314 11.2801 26.761 11.2736 27.5296 11.2476C27.5947 10.8177 27.6534 10.4073 27.7055 10.0164C27.7706 9.61259 27.8357 9.22827 27.9009 8.8635L30.5585 9.35204C30.5064 9.62562 30.4478 9.90571 30.3827 10.1923C30.3305 10.4659 30.2849 10.746 30.2459 11.0326C31.1708 10.9284 32.0632 10.7916 32.9231 10.6222C33.7959 10.4529 34.5385 10.2509 35.1508 10.0164L35.3853 12.5178C34.7339 12.7262 33.9262 12.9216 32.9621 13.104C31.9981 13.2734 30.995 13.4102 29.9527 13.5144C29.9397 13.7619 29.9267 14.016 29.9137 14.2765C29.9006 14.524 29.8876 14.7781 29.8746 15.0386C30.1482 14.9995 30.4283 14.967 30.7149 14.9409C31.0015 14.9149 31.2881 14.9018 31.5747 14.9018C31.9264 14.9018 32.2782 14.9214 32.6299 14.9605C32.7211 14.7129 32.8058 14.4654 32.884 14.2179C32.9752 13.9704 33.0598 13.7163 33.138 13.4558L35.7566 14.1593C35.5872 14.6673 35.3918 15.1559 35.1703 15.6249C36.1474 16.0678 36.9095 16.6866 37.4567 17.4813C38.0039 18.276 38.2774 19.1749 38.2774 20.1781C38.2774 21.3505 38.0169 22.3797 37.4958 23.2656C36.9747 24.1515 36.2386 24.8615 35.2876 25.3956C34.3366 25.9428 33.2032 26.3011 31.8874 26.4704ZM25.9663 22.3472C26.4222 22.269 27.0215 21.9694 27.7641 21.4483C27.5687 20.4581 27.4319 19.429 27.3537 18.3607C26.7023 18.7776 26.1812 19.2726 25.7904 19.8458C25.4126 20.4191 25.2237 21.0118 25.2237 21.6241C25.2237 21.9498 25.2823 22.1648 25.3996 22.269C25.5168 22.3732 25.7057 22.3993 25.9663 22.3472ZM30.0895 19.2205C30.3501 18.9209 30.5976 18.6017 30.8321 18.263C31.0796 17.9112 31.3141 17.5465 31.5356 17.1687C31.249 17.1687 30.9689 17.1817 30.6953 17.2077C30.4348 17.2338 30.1742 17.2729 29.9137 17.325C29.9527 17.9633 30.0114 18.5952 30.0895 19.2205Z" fill="var(--fill-0, #3D3D5C)"/>
<path d="M51.6048 25.552C51.5527 25.2914 51.4354 24.9918 51.253 24.6531C51.0837 24.3013 50.8817 23.9561 50.6472 23.6174C50.4258 23.2786 50.1978 23.0116 49.9633 22.8162C51.8002 22.5296 53.1616 21.9694 54.0475 21.1356C54.9334 20.3018 55.4024 19.2987 55.4545 18.1262C55.5066 17.2403 55.3502 16.4521 54.9855 15.7617C54.6207 15.0712 54.1256 14.511 53.5003 14.0811C52.888 13.6381 52.2171 13.3581 51.4875 13.2408C51.3833 14.4003 51.1879 15.5988 50.9013 16.8364C50.6277 18.0611 50.2434 19.227 49.7483 20.3344C49.2533 21.4287 48.641 22.3667 47.9114 23.1484C47.2991 23.8128 46.7194 24.1906 46.1722 24.2818C45.6251 24.3599 45.0453 24.2753 44.433 24.0277C43.8338 23.7802 43.3126 23.3894 42.8697 22.8552C42.4268 22.3081 42.088 21.6697 41.8535 20.9402C41.6321 20.1976 41.5409 19.4159 41.58 18.5952C41.6451 17.3706 41.9317 16.2502 42.4398 15.234C42.9609 14.2179 43.6514 13.3515 44.5112 12.635C45.371 11.9055 46.3546 11.3583 47.462 10.9935C48.5824 10.6157 49.7744 10.4594 51.0381 10.5245C52.0933 10.5766 53.0769 10.8111 53.9888 11.228C54.9008 11.6319 55.6955 12.1856 56.3729 12.8891C57.0634 13.5926 57.591 14.4068 57.9558 15.3317C58.3206 16.2567 58.4704 17.2598 58.4052 18.3411C58.314 20.2302 57.6627 21.7935 56.4511 23.0311C55.2395 24.2557 53.6241 25.096 51.6048 25.552ZM45.9182 21.0379C46.3611 20.621 46.765 20.0152 47.1298 19.2205C47.5076 18.4128 47.8267 17.5074 48.0873 16.5042C48.3479 15.4881 48.5237 14.4589 48.6149 13.4167C47.8072 13.6512 47.0907 14.029 46.4653 14.5501C45.853 15.0582 45.371 15.6705 45.0193 16.387C44.6675 17.1035 44.4656 17.8917 44.4135 18.7515C44.3874 19.2596 44.4395 19.7025 44.5698 20.0803C44.7131 20.4581 44.9151 20.7708 45.1756 21.0183C45.4231 21.2659 45.6707 21.2724 45.9182 21.0379Z" fill="var(--fill-0, #3D3D5C)"/>
<path d="M72.2993 26.6658C72.2862 26.3923 72.2472 26.0796 72.182 25.7279C72.1169 25.3891 72.0387 25.0504 71.9475 24.7117C71.8694 24.373 71.7782 24.0929 71.6739 23.8714H72.9637C73.2373 23.8714 73.4327 23.8323 73.5499 23.7542C73.6672 23.663 73.7258 23.4871 73.7258 23.2265V20.608H70.3256C70.6122 20.8034 70.9053 21.0249 71.2049 21.2724C71.5176 21.5199 71.8042 21.7609 72.0648 21.9954C72.3384 22.2169 72.5468 22.4188 72.6901 22.6012C72.4947 22.7706 72.2732 22.9986 72.0257 23.2852C71.7782 23.5587 71.5437 23.8323 71.3222 24.1059C71.1138 24.3665 70.9574 24.5749 70.8532 24.7312C70.6578 24.4577 70.3842 24.1515 70.0325 23.8128C69.6807 23.461 69.3159 23.1288 68.9381 22.8162C68.5734 22.5035 68.2672 22.2625 68.0197 22.0931L69.3485 20.608H67.8438V18.1262H73.7258V16.9537H67.5702V14.4328H71.3027V13.2408H68.0392V10.7199H71.3027V8.70716H74.3121V10.7199H77.8686V13.2408H74.3121V14.4328H78.533V16.9537H76.657V18.1262H78.3962V20.608H76.657V24.3404C76.657 25.1611 76.4225 25.7539 75.9535 26.1187C75.4845 26.4835 74.768 26.6658 73.804 26.6658H72.2993ZM61.0043 23.0507V10.0946H67.2185V23.0507H61.0043ZM63.6228 20.6275H64.5999V17.8135H63.6228V20.6275ZM63.6228 15.3122H64.5999V12.5569H63.6228V15.3122Z" fill="var(--fill-0, #3D3D5C)"/>
<path d="M90.6879 25.552C90.6358 25.2914 90.5185 24.9918 90.3361 24.6531C90.1668 24.3013 89.9648 23.9561 89.7303 23.6174C89.5089 23.2786 89.2809 23.0116 89.0464 22.8162C90.8833 22.5296 92.2447 21.9694 93.1306 21.1356C94.0164 20.3018 94.4854 19.2987 94.5376 18.1262C94.5897 17.2403 94.4333 16.4521 94.0686 15.7617C93.7038 15.0712 93.2087 14.511 92.5834 14.0811C91.9711 13.6381 91.3002 13.3581 90.5706 13.2408C90.4664 14.4003 90.271 15.5988 89.9844 16.8364C89.7108 18.0611 89.3265 19.227 88.8314 20.3344C88.3364 21.4287 87.7241 22.3667 86.9945 23.1484C86.3822 23.8128 85.8025 24.1906 85.2553 24.2818C84.7082 24.3599 84.1284 24.2753 83.5161 24.0277C82.9169 23.7802 82.3957 23.3894 81.9528 22.8552C81.5099 22.3081 81.1711 21.6697 80.9366 20.9402C80.7152 20.1976 80.624 19.4159 80.6631 18.5952C80.7282 17.3706 81.0148 16.2502 81.5229 15.234C82.044 14.2179 82.7345 13.3515 83.5943 12.635C84.4541 11.9055 85.4377 11.3583 86.5451 10.9935C87.6654 10.6157 88.8575 10.4594 90.1212 10.5245C91.1764 10.5766 92.16 10.8111 93.0719 11.228C93.9839 11.6319 94.7786 12.1856 95.456 12.8891C96.1465 13.5926 96.6741 14.4068 97.0389 15.3317C97.4036 16.2567 97.5535 17.2598 97.4883 18.3411C97.3971 20.2302 96.7458 21.7935 95.5342 23.0311C94.3226 24.2557 92.7072 25.096 90.6879 25.552ZM85.0013 21.0379C85.4442 20.621 85.8481 20.0152 86.2129 19.2205C86.5907 18.4128 86.9098 17.5074 87.1704 16.5042C87.4309 15.4881 87.6068 14.4589 87.698 13.4167C86.8903 13.6512 86.1738 14.029 85.5484 14.5501C84.9361 15.0582 84.4541 15.6705 84.1024 16.387C83.7506 17.1035 83.5487 17.8917 83.4966 18.7515C83.4705 19.2596 83.5226 19.7025 83.6529 20.0803C83.7962 20.4581 83.9981 20.7708 84.2587 21.0183C84.5062 21.2659 84.7538 21.2724 85.0013 21.0379Z" fill="var(--fill-0, #3D3D5C)"/>
<path d="M100.224 26.2555V23.8909H104.758C104.667 23.6043 104.562 23.3242 104.445 23.0507C104.328 22.7771 104.217 22.5361 104.113 22.3276H102.667V16.9928C102.328 17.2403 101.976 17.4813 101.612 17.7158C101.247 17.9373 100.876 18.1392 100.498 18.3216C100.302 17.9829 100.068 17.6246 99.7942 17.2468C99.5337 16.869 99.2601 16.5564 98.9735 16.3088C99.5076 16.0743 100.029 15.8007 100.537 15.4881C101.045 15.1754 101.533 14.8367 102.002 14.4719C101.729 14.1723 101.416 13.8596 101.064 13.5339C100.713 13.1952 100.413 12.9412 100.166 12.7718L101.592 11.3844H100.576V9.15662H107.552L108.549 9.97737C108.301 10.5766 108.002 11.1629 107.65 11.7361C107.311 12.3093 106.927 12.863 106.497 13.3971H110.796C110.288 12.7848 109.819 12.14 109.389 11.4625C108.972 10.7851 108.614 10.0881 108.314 9.37158L110.542 8.47267C110.842 9.15011 111.226 9.79498 111.695 10.4073C112.034 10.1467 112.392 9.83406 112.77 9.46928C113.148 9.09148 113.441 8.79184 113.649 8.57037L115.388 10.1532C115.219 10.3487 115.004 10.5766 114.744 10.8372C114.483 11.0847 114.216 11.3322 113.942 11.5798C113.669 11.8143 113.421 12.0227 113.2 12.2051C113.304 12.2963 113.402 12.394 113.493 12.4982C113.597 12.5894 113.695 12.6806 113.786 12.7718C114.02 12.6024 114.275 12.394 114.548 12.1465C114.835 11.8859 115.102 11.6254 115.349 11.3648C115.597 11.1043 115.799 10.8893 115.955 10.7199L117.714 12.2833C117.479 12.5699 117.16 12.9086 116.756 13.2994C116.365 13.6772 116.001 14.0029 115.662 14.2765C116.105 14.5631 116.548 14.8237 116.991 15.0582C117.434 15.2927 117.877 15.4816 118.32 15.6249C117.968 15.9245 117.642 16.3023 117.343 16.7583C117.043 17.2143 116.808 17.6181 116.639 17.9699C116.274 17.7875 115.916 17.5986 115.564 17.4032C115.213 17.1947 114.867 16.9732 114.529 16.7387V22.3276H113.219C113.154 22.5751 113.063 22.8357 112.946 23.1093C112.841 23.3698 112.731 23.6304 112.613 23.8909H117.049V26.2555H100.224ZM103.136 16.6606H114.392C114.001 16.4 113.617 16.1134 113.239 15.8007C112.874 15.4881 112.516 15.1689 112.164 14.8432V15.8398H105.344V14.7064C105.005 15.0582 104.647 15.3969 104.269 15.7226C103.904 16.0483 103.527 16.3609 103.136 16.6606ZM105.481 20.0999H111.715V18.8492H105.481V20.0999ZM107.767 23.8909H109.604C109.708 23.6434 109.819 23.3894 109.936 23.1288C110.054 22.8552 110.158 22.5882 110.249 22.3276H107.161C107.266 22.5751 107.37 22.8422 107.474 23.1288C107.591 23.4024 107.689 23.6564 107.767 23.8909ZM103.82 12.8109C104.276 12.3289 104.654 11.8534 104.953 11.3844H102.159C102.419 11.5798 102.699 11.8078 102.999 12.0683C103.299 12.3289 103.572 12.5764 103.82 12.8109Z" fill="var(--fill-0, #3D3D5C)"/>
<path d="M125.609 18.2239V11.9901H136.493V18.2239H125.609ZM119.492 23.9691L118.828 21.2528C119.127 21.1877 119.453 21.116 119.805 21.0379C120.157 20.9467 120.515 20.849 120.88 20.7448V15.2536H119.023V12.8109H120.88V9.07845H123.557V12.8109H125.198V15.2536H123.557V19.9436C123.948 19.8133 124.312 19.6895 124.651 19.5723C124.99 19.455 125.283 19.3508 125.53 19.2596V21.7805C125.205 21.9238 124.788 22.0931 124.28 22.2885C123.785 22.484 123.251 22.6924 122.677 22.9139C122.104 23.1223 121.537 23.3177 120.977 23.5001C120.417 23.6825 119.922 23.8388 119.492 23.9691ZM126.508 23.9105V18.6929H135.633V23.9105H126.508ZM123.889 26.5291V24.3795H137.392V26.5291H123.889ZM124.671 11.5211V9.58653H129.4V8.37496H132.429V9.58653H137.099V11.5211H124.671ZM128.012 16.9146H134.09V13.2994H128.012V16.9146ZM128.481 16.4456V13.7684H133.601V16.4456H128.481ZM129.146 22.484H133.093V21.9759H129.146V22.484ZM129.146 20.608H133.093V20.0999H129.146V20.608ZM130.396 15.4099H131.686V14.7846H130.396V15.4099Z" fill="var(--fill-0, #3D3D5C)"/>
<path d="M139.737 17.325L139.053 16.1525C139.731 15.9831 140.278 15.664 140.695 15.195C141.112 14.726 141.32 14.2505 141.32 13.7684C141.32 13.7033 141.314 13.6512 141.3 13.6121C141.3 13.56 141.3 13.5079 141.3 13.4558C141.157 13.6251 140.981 13.7684 140.773 13.8857C140.577 14.0029 140.369 14.0615 140.148 14.0615C139.757 14.0615 139.418 13.9313 139.131 13.6707C138.858 13.4102 138.721 13.0584 138.721 12.6155C138.721 12.1595 138.884 11.8078 139.21 11.5602C139.548 11.3127 139.939 11.1889 140.382 11.1889C141.059 11.1889 141.62 11.443 142.063 11.9511C142.506 12.4461 142.727 13.078 142.727 13.8466C142.727 14.6804 142.453 15.3904 141.906 15.9766C141.359 16.5629 140.636 17.0123 139.737 17.325ZM144.466 17.325L143.782 16.1525C144.46 15.9831 145.007 15.664 145.424 15.195C145.841 14.726 146.049 14.2505 146.049 13.7684C146.049 13.7033 146.043 13.6512 146.03 13.6121C146.03 13.56 146.03 13.5079 146.03 13.4558C145.886 13.6251 145.71 13.7684 145.502 13.8857C145.306 14.0029 145.098 14.0615 144.877 14.0615C144.486 14.0615 144.147 13.9313 143.86 13.6707C143.587 13.4102 143.45 13.0584 143.45 12.6155C143.45 12.1595 143.613 11.8078 143.939 11.5602C144.277 11.3127 144.668 11.1889 145.111 11.1889C145.789 11.1889 146.349 11.443 146.792 11.9511C147.235 12.4461 147.456 13.078 147.456 13.8466C147.456 14.6804 147.182 15.3904 146.635 15.9766C146.088 16.5629 145.365 17.0123 144.466 17.325Z" fill="var(--fill-0, #3D3D5C)"/>
<path d="M151.527 25.806C151.371 25.6497 151.143 25.4738 150.843 25.2784C150.544 25.083 150.231 24.9006 149.905 24.7312C149.593 24.5488 149.319 24.4251 149.085 24.3599C149.892 23.4741 150.655 22.3537 151.371 20.9988C152.088 19.6309 152.706 18.1978 153.228 16.6997C152.602 16.7778 151.996 16.869 151.41 16.9732C150.837 17.0644 150.348 17.1687 149.945 17.2859C149.932 17.0644 149.892 16.7843 149.827 16.4456C149.775 16.0939 149.71 15.7551 149.632 15.4295C149.567 15.0907 149.495 14.8302 149.417 14.6478C149.704 14.6217 150.088 14.5892 150.57 14.5501C151.052 14.511 151.586 14.4719 152.172 14.4328C152.772 14.3807 153.371 14.3351 153.97 14.296C154.192 13.5014 154.367 12.7262 154.498 11.9706C154.641 11.215 154.739 10.4985 154.791 9.82103L157.644 10.3291C157.488 11.5016 157.221 12.7588 156.843 14.1006C157.051 14.0876 157.234 14.0811 157.39 14.0811C157.559 14.0811 157.709 14.0811 157.839 14.0811C158.387 14.0811 158.875 14.1658 159.305 14.3351C159.748 14.5045 160.1 14.7976 160.36 15.2145C160.634 15.6314 160.797 16.2111 160.849 16.9537C160.914 17.6832 160.842 18.6147 160.634 19.7481C160.425 20.9337 160.197 21.9107 159.95 22.6794C159.702 23.435 159.409 24.0277 159.07 24.4577C158.745 24.8745 158.354 25.1677 157.898 25.337C157.442 25.5064 156.901 25.5911 156.276 25.5911C155.494 25.5911 154.81 25.4738 154.224 25.2393C154.237 24.9918 154.237 24.7052 154.224 24.3795C154.224 24.0408 154.211 23.7086 154.185 23.3829C154.159 23.0441 154.113 22.7575 154.048 22.523C154.348 22.6142 154.68 22.6924 155.045 22.7575C155.41 22.8227 155.722 22.8552 155.983 22.8552C156.178 22.8552 156.354 22.8162 156.511 22.738C156.68 22.6598 156.843 22.5035 156.999 22.269C157.155 22.0345 157.312 21.6762 157.468 21.1942C157.624 20.7122 157.781 20.0608 157.937 19.2401C158.106 18.4193 158.172 17.8135 158.132 17.4227C158.106 17.0188 158.002 16.7518 157.82 16.6215C157.637 16.4912 157.396 16.4261 157.097 16.4261C156.966 16.4261 156.817 16.4261 156.647 16.4261C156.478 16.4261 156.296 16.4326 156.1 16.4456C155.696 17.6572 155.234 18.8492 154.713 20.0217C154.205 21.1812 153.677 22.2625 153.13 23.2656C152.583 24.2557 152.049 25.1025 151.527 25.806ZM165.441 20.8425C165.246 20.4907 164.965 20.0673 164.601 19.5723C164.249 19.0642 163.852 18.5561 163.409 18.048C162.979 17.5269 162.562 17.0579 162.158 16.641C161.754 16.2111 161.415 15.8919 161.142 15.6835L163.291 13.9052C163.565 14.1397 163.91 14.4654 164.327 14.8823C164.744 15.2992 165.174 15.7486 165.617 16.2307C166.06 16.7127 166.47 17.1882 166.848 17.6572C167.239 18.1262 167.545 18.5366 167.766 18.8883L165.441 20.8425ZM164.992 14.2765C164.666 13.9378 164.269 13.6056 163.8 13.2799C163.331 12.9412 162.907 12.6741 162.529 12.4787L163.506 11.1889C163.715 11.2932 163.982 11.456 164.308 11.6775C164.633 11.8859 164.952 12.1074 165.265 12.3419C165.591 12.5634 165.845 12.7588 166.027 12.9281L164.992 14.2765ZM166.438 12.3419C166.112 12.0032 165.715 11.671 165.246 11.3453C164.777 11.0196 164.353 10.759 163.975 10.5636L164.952 9.27387C165.161 9.37809 165.428 9.53442 165.754 9.74287C166.079 9.95131 166.399 10.1728 166.711 10.4073C167.037 10.6418 167.291 10.8437 167.473 11.0131L166.438 12.3419Z" fill="var(--fill-0, #3D3D5C)"/>
<path d="M172.456 26.3532C172.183 25.9102 171.844 25.4543 171.44 24.9853C171.049 24.5032 170.626 24.0473 170.17 23.6174C169.727 23.1744 169.291 22.8096 168.861 22.523L170.678 20.8815C170.978 21.077 171.303 21.3245 171.655 21.6241C172.02 21.9238 172.385 22.2495 172.75 22.6012C173.127 22.9399 173.473 23.2721 173.785 23.5978C174.098 23.9235 174.352 24.2101 174.547 24.4577L172.456 26.3532Z" fill="var(--fill-0, #3D3D5C)"/>
</g>
</g>
</svg>
