<svg preserveAspectRatio="none" width="100%" height="100%" overflow="visible" style="display: block;" viewBox="0 0 299.787 18.4472" fill="none" xmlns="http://www.w3.org/2000/svg">
<g id="&#231;&#167;&#129;&#227;&#129;&#174;&#227;&#130;&#168;&#227;&#131;&#179;&#227;&#130;&#184;&#227;&#131;&#139;&#227;&#130;&#162;&#228;&#186;&#186;&#231;&#148;&#159;&#227;&#130;&#146;&#229;&#164;&#137;&#227;&#129;&#136;&#227;&#129;&#190;&#227;&#129;&#151;&#227;&#129;&#159;&#227;&#128;&#130;">
<path d="M3.65427 18.0368V12.4089C3.36766 12.8779 3.08756 13.3078 2.81398 13.6986C2.5404 14.0895 2.29939 14.4021 2.09095 14.6366C1.96067 14.4542 1.77177 14.2523 1.52424 14.0308C1.27671 13.8094 1.01616 13.5944 0.742579 13.386C0.468997 13.1645 0.221471 12.9886 0 12.8583C0.286609 12.5848 0.59276 12.2395 0.918453 11.8226C1.25717 11.3927 1.58938 10.9302 1.91507 10.4352C2.25379 9.92711 2.55994 9.41903 2.83352 8.91095C3.12013 8.40287 3.35463 7.93387 3.53702 7.50395H0.50808V4.9831H3.65427V3.90831C3.21133 3.9995 2.78793 4.07767 2.38407 4.14281C1.99324 4.19492 1.62846 4.234 1.28974 4.26006C1.26369 4.05161 1.19855 3.79757 1.09433 3.49794C0.990105 3.18527 0.872856 2.87912 0.742579 2.57948C0.62533 2.27985 0.501566 2.04535 0.371289 1.87599C0.696982 1.87599 1.11387 1.84342 1.62195 1.77828C2.13003 1.70012 2.67068 1.60892 3.2439 1.5047C3.83014 1.38745 4.40988 1.25717 4.9831 1.11387C5.56934 0.957536 6.10999 0.79469 6.60504 0.62533C7.1001 0.442942 7.49744 0.267068 7.79708 0.0977076L9.20407 2.34499C8.83929 2.50132 8.41589 2.66417 7.93387 2.83353C7.45184 2.98986 6.94376 3.13968 6.40963 3.28298V4.9831H9.30178V7.50395H6.40963V7.87524C6.6311 8.12277 6.92422 8.41589 7.289 8.75461C7.6668 9.09333 8.05112 9.42554 8.44195 9.75123C8.83278 10.0769 9.17801 10.3505 9.47765 10.572C9.19104 10.7934 8.88489 11.1126 8.5592 11.5295C8.23351 11.9464 7.97947 12.3177 7.79708 12.6434C7.60166 12.461 7.38019 12.2526 7.13267 12.0181C6.89817 11.7705 6.65715 11.5035 6.40963 11.2168V18.0368H3.65427ZM16.1218 17.7046C16.0697 17.4441 16.0045 17.164 15.9264 16.8644C15.8612 16.5777 15.7765 16.2716 15.6723 15.9459C15.0861 16.0632 14.4086 16.1999 13.64 16.3563C12.8844 16.4996 12.1223 16.6364 11.3536 16.7666C10.585 16.91 9.86848 17.0337 9.20407 17.1379C8.53966 17.2552 8.01204 17.3464 7.6212 17.4115L7.0545 14.5975C7.26294 14.5715 7.50396 14.5454 7.77754 14.5194C8.05112 14.4933 8.35076 14.4607 8.67645 14.4217C8.88489 13.6921 9.09985 12.8518 9.32132 11.9008C9.54279 10.9368 9.75123 9.92711 9.94665 8.87186C10.1551 7.80359 10.344 6.75486 10.5134 5.72567C10.6827 4.68346 10.826 3.71289 10.9433 2.81398C11.0605 1.90204 11.1387 1.13341 11.1778 0.508081L14.2262 1.05524C14.0829 1.9281 13.9006 2.93123 13.6791 4.06464C13.4706 5.18502 13.2427 6.351 12.9951 7.56258C12.7476 8.76113 12.5001 9.92711 12.2526 11.0605C12.0181 12.1809 11.7901 13.184 11.5686 14.0699C12.1418 13.9917 12.715 13.9136 13.2883 13.8354C13.8745 13.7442 14.4086 13.653 14.8907 13.5618C14.565 12.6629 14.2132 11.8031 13.8354 10.9824C13.4706 10.1486 13.1319 9.47114 12.8193 8.95003L15.4574 8.12928C15.77 8.62434 16.1022 9.23664 16.454 9.96619C16.8057 10.6957 17.1445 11.4709 17.4701 12.2916C17.7958 13.0994 18.089 13.8875 18.3495 14.6562C18.6101 15.4118 18.8055 16.0632 18.9358 16.6103L16.1218 17.7046Z" fill="var(--fill-0, #3D3D5C)"/>
<path d="M30.5434 17.0793C30.4913 16.8188 30.3741 16.5191 30.1917 16.1804C30.0223 15.8287 29.8204 15.4834 29.5859 15.1447C29.3644 14.806 29.1365 14.5389 28.902 14.3435C30.7389 14.0569 32.1003 13.4967 32.9861 12.6629C33.872 11.8292 34.341 10.826 34.3931 9.65353C34.4452 8.76764 34.2889 7.97947 33.9241 7.289C33.5594 6.59853 33.0643 6.03834 32.439 5.60842C31.8267 5.16548 31.1557 4.88539 30.4262 4.76814C30.322 5.9276 30.1266 7.12615 29.8399 8.36378C29.5664 9.58839 29.182 10.7544 28.687 11.8617C28.1919 12.956 27.5796 13.894 26.8501 14.6757C26.2378 15.3401 25.6581 15.7179 25.1109 15.8091C24.5637 15.8873 23.984 15.8026 23.3717 15.5551C22.7724 15.3075 22.2513 14.9167 21.8084 14.3826C21.3654 13.8354 21.0267 13.1971 20.7922 12.4675C20.5707 11.7249 20.4795 10.9433 20.5186 10.1225C20.5838 8.89792 20.8704 7.77754 21.3785 6.76138C21.8996 5.74522 22.59 4.87887 23.4499 4.16235C24.3097 3.4328 25.2933 2.88564 26.4006 2.52086C27.521 2.14306 28.713 1.98672 29.9767 2.05186C31.032 2.10397 32.0156 2.33847 32.9275 2.75536C33.8394 3.15922 34.6341 3.71289 35.3116 4.41639C36.002 5.11989 36.5297 5.93412 36.8944 6.85908C37.2592 7.78405 37.409 8.78718 37.3439 9.86848C37.2527 11.7575 36.6013 13.3208 35.3897 14.5585C34.1782 15.7831 32.5627 16.6233 30.5434 17.0793ZM24.8569 12.5652C25.2998 12.1483 25.7037 11.5425 26.0684 10.7479C26.4462 9.94013 26.7654 9.03471 27.026 8.03158C27.2865 7.01542 27.4624 5.98623 27.5536 4.94401C26.7459 5.17851 26.0293 5.55631 25.404 6.07742C24.7917 6.5855 24.3097 7.1978 23.9579 7.91433C23.6062 8.63085 23.4043 9.41903 23.3522 10.2789C23.3261 10.7869 23.3782 11.2299 23.5085 11.6077C23.6518 11.9855 23.8537 12.2981 24.1143 12.5457C24.3618 12.7932 24.6093 12.7997 24.8569 12.5652Z" fill="var(--fill-0, #3D3D5C)"/>
<path d="M40.451 14.1481V11.1387C41.0112 11.1908 41.845 11.2234 42.9523 11.2364C44.0727 11.2494 45.4406 11.2559 47.0561 11.2559V6.64413C46.3656 6.64413 45.7012 6.65064 45.0628 6.66367C44.4375 6.6767 43.8838 6.68972 43.4018 6.70275C42.9328 6.71578 42.581 6.73532 42.3465 6.76138V3.75198C42.8546 3.80409 43.6298 3.83666 44.672 3.84969C45.7272 3.86271 47.043 3.86923 48.6194 3.86923C50.1306 3.86923 51.4073 3.86271 52.4495 3.84969C53.5048 3.82363 54.2669 3.79106 54.7359 3.75198V6.76138C54.3711 6.72229 53.8044 6.69624 53.0358 6.68321C52.2671 6.67018 51.2835 6.65715 50.085 6.64413V11.2559C51.6223 11.2429 52.9446 11.2299 54.0519 11.2168C55.1593 11.1908 55.9279 11.1647 56.3578 11.1387V14.1481C55.2505 14.0699 52.6319 14.0308 48.5021 14.0308C47.6814 14.0308 46.8541 14.0373 46.0203 14.0504C45.1866 14.0504 44.3984 14.0569 43.6558 14.0699C42.9132 14.0699 42.2619 14.0764 41.7017 14.0895C41.1415 14.1025 40.7246 14.122 40.451 14.1481Z" fill="var(--fill-0, #3D3D5C)"/>
<path d="M62.7284 16.2586L61.0673 13.2883C61.9923 13.1189 62.9759 12.8193 64.0181 12.3893C65.0603 11.9464 66.1025 11.4188 67.1448 10.8065C68.2 10.1811 69.2031 9.51022 70.1542 8.7937C71.1182 8.06415 71.978 7.33459 72.7336 6.60504C73.5023 5.87549 74.1146 5.17851 74.5705 4.5141C74.6357 4.80071 74.7399 5.14594 74.8832 5.5498C75.0265 5.94063 75.1829 6.32495 75.3522 6.70275C75.5216 7.06753 75.6714 7.36716 75.8017 7.60166C75.1503 8.43544 74.3426 9.28224 73.3785 10.1421C72.4275 10.9889 71.3723 11.8031 70.2128 12.5848C69.0533 13.3664 67.8352 14.0764 66.5585 14.7148C65.2948 15.3401 64.0181 15.8547 62.7284 16.2586ZM64.5653 7.71891C64.3829 7.5235 64.1354 7.30203 63.8227 7.0545C63.51 6.79394 63.1648 6.53339 62.787 6.27284C62.4092 5.99926 62.0379 5.74521 61.6731 5.51072C61.3084 5.27622 60.9892 5.09383 60.7156 4.96355L62.6697 2.52086C63.0475 2.7293 63.484 2.99637 63.979 3.32206C64.4871 3.64776 64.9822 3.98648 65.4642 4.33822C65.9462 4.68997 66.337 5.01566 66.6367 5.3153L64.5653 7.71891Z" fill="var(--fill-0, #3D3D5C)"/>
<path d="M82.8366 16.9425L81.1951 13.9527C82.1201 13.7833 83.1037 13.4837 84.1459 13.0538C85.1881 12.6108 86.2303 12.0832 87.2726 11.4709C88.3278 10.8456 89.3309 10.1746 90.282 9.45811C91.233 8.74159 92.0863 8.01855 92.8419 7.289C93.6105 6.54642 94.2228 5.84292 94.6788 5.17851C94.757 5.49118 94.8612 5.84292 94.9915 6.23375C95.1348 6.62458 95.2911 7.00239 95.4605 7.36716C95.6298 7.73194 95.7862 8.03158 95.9295 8.26607C95.2781 9.09985 94.4704 9.94665 93.5063 10.8065C92.5553 11.6533 91.5 12.4675 90.3406 13.2492C89.1811 14.0308 87.963 14.7408 86.6863 15.3792C85.4096 16.0045 84.1264 16.5256 82.8366 16.9425ZM86.4518 6.56596C86.2564 6.38357 85.9893 6.17513 85.6506 5.94063C85.3119 5.70613 84.9471 5.47163 84.5563 5.23713C84.1785 4.98961 83.8072 4.76814 83.4424 4.57272C83.0776 4.37731 82.778 4.234 82.5435 4.14281L84.185 1.64149C84.4586 1.7848 84.7843 1.96718 85.1621 2.18865C85.5399 2.41012 85.9177 2.65114 86.2955 2.91169C86.6863 3.15922 87.0511 3.40023 87.3898 3.63473C87.7285 3.8562 87.9956 4.0451 88.191 4.20143L86.4518 6.56596ZM83.6378 10.6501C83.3642 10.4287 82.9864 10.1877 82.5044 9.92711C82.0224 9.65352 81.5208 9.39948 80.9997 9.16499C80.4916 8.93049 80.0422 8.74159 79.6514 8.59828L81.1365 5.97971C81.5404 6.13605 81.9963 6.34449 82.5044 6.60504C83.0255 6.85257 83.5271 7.11312 84.0091 7.38671C84.5042 7.66029 84.908 7.9013 85.2207 8.10974L83.6378 10.6501ZM94.542 3.3416C94.2684 2.9638 93.9297 2.57297 93.5258 2.16911C93.122 1.75223 92.7572 1.42002 92.4315 1.17249L93.604 0.0586251C93.7994 0.201929 94.0339 0.410373 94.3075 0.683955C94.5941 0.944508 94.8742 1.21809 95.1478 1.5047C95.4214 1.77828 95.6363 2.01278 95.7927 2.2082L94.542 3.3416ZM92.8028 5.00264C92.5292 4.61181 92.1905 4.21446 91.7867 3.8106C91.3828 3.39372 91.0115 3.06151 90.6728 2.81398L91.8648 1.70011C92.0472 1.84342 92.2752 2.05186 92.5488 2.32544C92.8354 2.586 93.1155 2.85958 93.3891 3.14619C93.6626 3.41977 93.8776 3.65427 94.0339 3.84969L92.8028 5.00264Z" fill="var(--fill-0, #3D3D5C)"/>
<path d="M99.3688 13.9722V10.8456C100.007 10.8977 101.017 10.9302 102.398 10.9433C103.779 10.9563 105.472 10.9628 107.479 10.9628C109.394 10.9628 110.944 10.9498 112.129 10.9237C113.315 10.8846 114.168 10.8586 114.689 10.8456V13.9722C114.325 13.9331 113.843 13.9071 113.243 13.894C112.657 13.881 111.895 13.8745 110.957 13.8745C110.019 13.8615 108.859 13.855 107.479 13.855C106.658 13.855 105.824 13.855 104.977 13.855C104.143 13.855 103.349 13.8615 102.593 13.8745C101.851 13.8875 101.193 13.9006 100.619 13.9136C100.059 13.9266 99.6424 13.9462 99.3688 13.9722ZM101.421 7.15221V4.00602C101.929 4.05813 102.704 4.0907 103.746 4.10373C104.801 4.11675 106.117 4.12327 107.693 4.12327C108.71 4.12327 109.537 4.12327 110.175 4.12327C110.827 4.11024 111.348 4.09721 111.739 4.08418C112.129 4.05813 112.442 4.03207 112.677 4.00602V7.15221C112.39 7.11312 112.071 7.08707 111.719 7.07404C111.367 7.04799 110.879 7.03496 110.253 7.03496C109.641 7.02193 108.788 7.01542 107.693 7.01542C106.834 7.01542 105.974 7.02193 105.114 7.03496C104.254 7.03496 103.492 7.04799 102.828 7.07404C102.176 7.08707 101.707 7.11312 101.421 7.15221Z" fill="var(--fill-0, #3D3D5C)"/>
<path d="M122.311 17.7242C122.167 17.5027 121.972 17.2487 121.724 16.9621C121.477 16.6885 121.216 16.4214 120.943 16.1609C120.669 15.9003 120.409 15.6984 120.161 15.5551C121.386 14.9037 122.35 14.1025 123.053 13.1515C123.77 12.1874 124.271 11.0996 124.558 9.88802C124.844 8.66342 124.962 7.35414 124.91 5.96017H127.919C127.919 6.31192 127.906 6.65715 127.88 6.99587C127.867 7.32157 127.847 7.64726 127.821 7.97295C128.29 7.59515 128.805 7.11964 129.365 6.54642C129.925 5.96017 130.446 5.3609 130.928 4.7486C130.186 4.77465 129.365 4.80722 128.466 4.8463C127.567 4.87236 126.649 4.90493 125.711 4.94401C124.773 4.9831 123.874 5.02218 123.014 5.06126C122.154 5.10034 121.386 5.13943 120.708 5.17851C120.044 5.20457 119.536 5.23062 119.184 5.25668L119.047 2.24728C119.503 2.27333 120.109 2.29288 120.864 2.3059C121.62 2.31893 122.454 2.32544 123.366 2.32544C124.291 2.31242 125.235 2.29939 126.199 2.28636C127.176 2.26031 128.121 2.22774 129.033 2.18865C129.945 2.14957 130.772 2.10397 131.515 2.05186C132.257 1.99975 132.843 1.94113 133.273 1.87599L135.188 3.36115C134.889 3.90831 134.524 4.48804 134.094 5.10034C133.677 5.71265 133.228 6.31843 132.746 6.91771C132.264 7.51698 131.782 8.07717 131.3 8.59828C130.831 9.11939 130.388 9.55582 129.971 9.90757C129.828 9.73821 129.632 9.54279 129.385 9.32132C129.137 9.08682 128.87 8.85884 128.583 8.63736C128.31 8.41589 128.056 8.24002 127.821 8.10974C127.613 10.2723 127.059 12.1418 126.16 13.7182C125.261 15.2945 123.978 16.6299 122.311 17.7242Z" fill="var(--fill-0, #3D3D5C)"/>
<path d="M139.097 18.0759C138.849 17.633 138.563 17.2031 138.237 16.7862C137.911 16.3693 137.559 15.998 137.182 15.6723C138.185 15.1512 139.129 14.5454 140.015 13.855C140.914 13.1515 141.709 12.3633 142.399 11.4904C143.103 10.6045 143.65 9.6405 144.041 8.59828C144.445 7.55607 144.647 6.43568 144.647 5.23713V0.547163H147.617V4.41639C147.617 5.75824 147.825 6.99587 148.242 8.12928C148.672 9.26269 149.252 10.2854 149.981 11.1973C150.711 12.1092 151.538 12.917 152.463 13.6205C153.388 14.3109 154.352 14.8907 155.355 15.3597C155.017 15.7244 154.678 16.1543 154.339 16.6494C154 17.1445 153.72 17.6069 153.499 18.0368C152.444 17.4767 151.44 16.7797 150.489 15.9459C149.551 15.1121 148.718 14.2067 147.988 13.2296C147.272 12.2526 146.705 11.2559 146.288 10.2398C145.871 11.3211 145.285 12.3568 144.529 13.3469C143.774 14.324 142.927 15.2164 141.989 16.0241C141.051 16.8318 140.087 17.5157 139.097 18.0759Z" fill="var(--fill-0, #3D3D5C)"/>
<path d="M157.153 17.3138V14.7539H164.501V11.6077H159.83V9.00865H164.501V6.50734H160.788C160.436 7.10661 160.071 7.67983 159.694 8.22699C159.316 8.76113 158.957 9.2171 158.619 9.5949C158.436 9.42554 158.195 9.24315 157.896 9.04774C157.596 8.85232 157.29 8.66993 156.977 8.50057C156.665 8.31819 156.378 8.18791 156.117 8.10974C156.469 7.758 156.86 7.27597 157.29 6.66367C157.72 6.03834 158.137 5.3609 158.541 4.63135C158.944 3.9018 159.296 3.18527 159.596 2.48178C159.895 1.76525 160.104 1.14644 160.221 0.62533L162.977 1.52424C162.885 1.88902 162.762 2.27985 162.605 2.69673C162.462 3.11362 162.293 3.53702 162.097 3.96693H164.501V0.312665H167.53V3.96693H173.724V6.50734H167.53V9.00865H172.142V11.6077H167.53V14.7539H174.33V17.3138H157.153Z" fill="var(--fill-0, #3D3D5C)"/>
<path d="M186.817 17.8805C185.671 17.8805 184.642 17.7698 183.73 17.5483C182.831 17.3268 182.114 16.9686 181.58 16.4735C181.046 15.9785 180.779 15.3206 180.779 14.4998C180.779 13.8484 180.968 13.2557 181.346 12.7215C181.723 12.1874 182.244 11.7054 182.909 11.2755C183.586 10.8325 184.361 10.4287 185.234 10.0639V9.96619C185.234 9.62747 185.124 9.36692 184.902 9.18453C184.694 9.00214 184.433 8.89792 184.12 8.87186C183.56 8.80672 183.065 8.85884 182.635 9.0282C182.218 9.19756 181.743 9.5493 181.209 10.0834C181.052 10.2267 180.831 10.4352 180.544 10.7088C180.258 10.9823 179.965 11.2559 179.665 11.5295C179.378 11.8031 179.144 12.0246 178.962 12.1939L176.89 10.1225C177.763 9.58839 178.597 8.8914 179.391 8.03158C180.186 7.15872 180.883 6.22724 181.482 5.23713C180.101 5.30227 179.098 5.32181 178.473 5.29576L178.356 2.55994C178.812 2.59903 179.424 2.61857 180.193 2.61857C180.974 2.61857 181.808 2.59903 182.694 2.55994C182.954 1.79131 183.111 1.04873 183.163 0.332207L186.016 0.488539C185.99 0.801204 185.951 1.11387 185.899 1.42653C185.847 1.7392 185.775 2.05186 185.684 2.36453C186.609 2.29939 187.462 2.21471 188.244 2.11049C189.038 2.00627 189.644 1.89553 190.061 1.77828L190.217 4.41639C189.853 4.48153 189.377 4.55318 188.791 4.63135C188.205 4.69649 187.56 4.76162 186.856 4.82676C186.166 4.8919 185.449 4.95704 184.707 5.02218C184.576 5.30879 184.433 5.58888 184.277 5.86246C184.12 6.13605 183.958 6.40311 183.788 6.66367C184.14 6.5855 184.492 6.54642 184.844 6.54642C185.612 6.54642 186.29 6.73532 186.876 7.11312C187.475 7.4779 187.859 8.12928 188.029 9.06728C188.732 8.84581 189.449 8.64388 190.178 8.46149C190.921 8.26607 191.664 8.07717 192.406 7.89479L193.227 10.5524C192.289 10.6567 191.383 10.8 190.511 10.9824C189.651 11.1517 188.85 11.3406 188.107 11.5491V14.0504H185.254V12.6043C184.733 12.8649 184.322 13.1319 184.023 13.4055C183.723 13.6661 183.573 13.9136 183.573 14.1481C183.573 14.5519 183.808 14.819 184.277 14.9493C184.746 15.0665 185.534 15.1252 186.641 15.1252C187.097 15.1252 187.625 15.0926 188.224 15.0275C188.837 14.9623 189.436 14.8841 190.022 14.793C190.621 14.6887 191.123 14.578 191.527 14.4607C191.488 14.6952 191.449 15.0079 191.409 15.3987C191.383 15.7765 191.364 16.1543 191.351 16.5321C191.338 16.8969 191.338 17.19 191.351 17.4115C190.726 17.5548 189.989 17.6656 189.143 17.7437C188.309 17.8349 187.534 17.8805 186.817 17.8805Z" fill="var(--fill-0, #3D3D5C)"/>
<path d="M198.229 11.0996C198.06 10.7218 197.858 10.331 197.624 9.92711C197.389 9.51022 197.129 9.16499 196.842 8.89141C198.171 8.47452 199.252 7.86222 200.086 7.0545C200.933 6.23375 201.421 5.1264 201.552 3.73244H195.924V1.5047H203.252V0H206.476V1.5047H213.804V3.73244H208.586V5.37393L210.228 3.83014C210.606 4.05161 211.016 4.33822 211.459 4.68997C211.902 5.04172 212.325 5.40649 212.729 5.7843C213.146 6.1621 213.485 6.51385 213.745 6.83954C213.537 6.96982 213.296 7.14569 213.022 7.36716C212.762 7.58863 212.508 7.82313 212.26 8.07066C212.013 8.31819 211.804 8.53966 211.635 8.73507C211.44 8.46149 211.153 8.12928 210.775 7.73845C210.41 7.34762 210.026 6.96982 209.622 6.60504C209.231 6.22724 208.886 5.93412 208.586 5.72567V6.87863C208.586 7.60818 208.372 8.1358 207.942 8.46149C207.525 8.77416 206.893 8.93049 206.046 8.93049H204.776C204.763 8.69599 204.724 8.42241 204.659 8.10974C204.607 7.79708 204.541 7.49744 204.463 7.21083C204.398 6.91119 204.32 6.66367 204.229 6.46825H205.108C205.356 6.46825 205.532 6.43568 205.636 6.37055C205.74 6.29238 205.792 6.13605 205.792 5.90155V3.73244H204.405C204.313 4.82676 204.001 5.86247 203.467 6.83954C202.946 7.80359 202.242 8.65691 201.356 9.39949C200.47 10.1421 199.428 10.7088 198.229 11.0996ZM196.803 18.4472C196.699 18.0303 196.549 17.5744 196.353 17.0793C196.158 16.5973 195.95 16.2325 195.728 15.985C196.901 15.9198 198.073 15.744 199.246 15.4574C200.431 15.1708 201.532 14.8255 202.548 14.4217C202.34 14.2393 202.144 14.0439 201.962 13.8354C201.793 13.627 201.623 13.4185 201.454 13.2101C200.985 13.5618 200.503 13.881 200.008 14.1676C199.526 14.4542 199.024 14.7083 198.503 14.9297C198.334 14.591 198.099 14.2262 197.8 13.8354C197.513 13.4446 197.194 13.1059 196.842 12.8193C197.728 12.5196 198.555 12.1223 199.324 11.6272C200.105 11.1191 200.802 10.5524 201.415 9.92711C202.027 9.30178 202.522 8.65691 202.9 7.99249L205.225 9.16499C205.16 9.25618 205.095 9.35389 205.03 9.45811C204.965 9.5493 204.9 9.64701 204.835 9.75123H209.954L210.912 10.826C209.948 12.233 208.86 13.425 207.649 14.4021C208.652 14.7799 209.687 15.06 210.756 15.2424C211.824 15.4118 212.866 15.4964 213.882 15.4964C213.687 15.7179 213.517 16.0045 213.374 16.3563C213.231 16.708 213.107 17.0533 213.003 17.392C212.912 17.7437 212.84 18.0434 212.788 18.2909C211.342 18.2258 209.948 18.0108 208.606 17.646C207.264 17.2943 206.033 16.8057 204.913 16.1804C203.766 16.7536 202.522 17.2161 201.18 17.5679C199.838 17.9326 198.379 18.2258 196.803 18.4472ZM197.546 8.57874C197.337 8.30516 197.05 7.98598 196.686 7.6212C196.334 7.25643 195.976 6.95028 195.611 6.70275C195.937 6.49431 196.282 6.22724 196.647 5.90155C197.024 5.56283 197.389 5.21108 197.741 4.8463C198.106 4.4685 198.405 4.12327 198.64 3.8106L200.711 5.37393C200.438 5.7387 200.112 6.12302 199.734 6.52688C199.369 6.93074 198.992 7.31505 198.601 7.67983C198.223 8.03158 197.871 8.33121 197.546 8.57874ZM205.167 13.1124C205.505 12.8909 205.805 12.676 206.066 12.4675C206.339 12.246 206.567 12.0311 206.75 11.8226H203.623C204.105 12.3047 204.62 12.7346 205.167 13.1124Z" fill="var(--fill-0, #3D3D5C)"/>
<path d="M228.304 17.7437C227.483 17.7437 226.832 17.646 226.35 17.4506C225.881 17.2552 225.542 16.9295 225.334 16.4735C225.138 16.0045 225.04 15.3597 225.04 14.5389C225.04 13.9266 225.027 13.4576 225.001 13.1319C224.988 12.8062 224.956 12.5782 224.904 12.448C224.865 12.3047 224.799 12.2135 224.708 12.1744C224.5 12.0702 224.317 12.0506 224.161 12.1158C224.018 12.1809 223.888 12.2851 223.77 12.4284C223.093 13.1971 222.454 13.9266 221.855 14.6171C221.256 15.3075 220.735 15.9133 220.292 16.4344C219.862 16.9556 219.543 17.3594 219.334 17.646L216.892 15.8091C217.204 15.5616 217.602 15.1968 218.084 14.7148C218.579 14.2328 219.106 13.6921 219.667 13.0928C220.24 12.4936 220.806 11.8813 221.367 11.2559C221.94 10.6176 222.461 10.0248 222.93 9.47765C223.412 8.91746 223.796 8.45498 224.083 8.0902C223.77 8.14231 223.36 8.20745 222.852 8.28562C222.357 8.35076 221.836 8.41589 221.288 8.48103C220.741 8.54617 220.24 8.6048 219.784 8.65691C219.328 8.70902 218.996 8.74159 218.787 8.75461L218.377 6.09696C218.716 6.10999 219.165 6.10348 219.725 6.07742C220.285 6.03834 220.898 5.99274 221.562 5.94063C222.226 5.87549 222.891 5.80384 223.555 5.72567C224.233 5.64751 224.858 5.55631 225.431 5.45209C226.005 5.34787 226.474 5.24365 226.838 5.13943L228.871 6.80046C228.662 6.95679 228.271 7.34762 227.698 7.97295C227.125 8.58525 226.46 9.31481 225.705 10.1616C225.887 10.1225 226.102 10.1486 226.35 10.2398C226.61 10.3179 226.819 10.4156 226.975 10.5329C227.131 10.6501 227.255 10.8 227.346 10.9824C227.438 11.1517 227.503 11.3992 227.542 11.7249C227.594 12.0506 227.62 12.4936 227.62 13.0538C227.62 13.627 227.653 14.0504 227.718 14.324C227.783 14.5845 227.9 14.7474 228.069 14.8125C228.252 14.8776 228.493 14.9102 228.792 14.9102C229.144 14.9102 229.535 14.8972 229.965 14.8711C230.395 14.832 230.818 14.7799 231.235 14.7148C231.652 14.6496 232.017 14.578 232.329 14.4998C232.264 14.7083 232.212 14.9949 232.173 15.3597C232.134 15.7244 232.108 16.0957 232.095 16.4735C232.095 16.8513 232.108 17.1705 232.134 17.4311C231.769 17.4962 231.346 17.5483 230.864 17.5874C230.395 17.6395 229.932 17.6786 229.476 17.7046C229.02 17.7307 228.63 17.7437 228.304 17.7437ZM226.662 4.76814C226.363 4.703 225.959 4.59878 225.451 4.45547C224.956 4.29914 224.428 4.12978 223.868 3.94739C223.308 3.75198 222.787 3.56308 222.305 3.38069C221.823 3.18527 221.451 3.0094 221.191 2.85307L222.481 0.449456C222.676 0.566705 222.976 0.71001 223.379 0.87937C223.796 1.0357 224.259 1.20506 224.767 1.38745C225.275 1.55681 225.777 1.71314 226.272 1.85645C226.78 1.98672 227.21 2.08443 227.561 2.14957L226.662 4.76814Z" fill="var(--fill-0, #3D3D5C)"/>
<path d="M241.182 17.9391C239.97 17.887 239.019 17.5483 238.329 16.923C237.651 16.3107 237.319 15.516 237.332 14.5389C237.345 13.9136 237.554 13.3599 237.957 12.8779C238.361 12.3828 238.902 12.005 239.579 11.7445C240.27 11.4709 241.052 11.3602 241.924 11.4123C242.081 11.4253 242.237 11.4383 242.393 11.4513C242.563 11.4513 242.726 11.4644 242.882 11.4904L242.843 9.79032C242.66 9.80334 242.478 9.80986 242.296 9.80986C242.126 9.80986 241.95 9.80986 241.768 9.80986C240.882 9.80986 240.185 9.74472 239.677 9.61444C239.182 9.47114 238.785 9.23664 238.485 8.91095C238.198 8.57223 237.912 8.10974 237.625 7.5235L239.873 6.40963C240.003 6.6311 240.133 6.80046 240.263 6.91771C240.394 7.03496 240.576 7.11312 240.811 7.15221C241.058 7.17826 241.397 7.19129 241.827 7.19129C241.983 7.19129 242.139 7.19129 242.296 7.19129C242.452 7.19129 242.615 7.18478 242.784 7.17175L242.745 5.45209C241.781 5.5042 240.882 5.54329 240.048 5.56934C239.215 5.58237 238.57 5.58237 238.114 5.56934L237.997 2.89215C238.452 2.93123 239.104 2.95077 239.951 2.95077C240.811 2.95077 241.729 2.92472 242.706 2.87261C242.693 2.39058 242.68 1.94764 242.667 1.54378C242.667 1.1269 242.667 0.76212 242.667 0.449456H245.481C245.455 1.04873 245.455 1.81085 245.481 2.73582C246.393 2.67068 247.22 2.59903 247.963 2.52086C248.705 2.42967 249.246 2.33847 249.585 2.24728V4.86585C249.246 4.93098 248.705 5.00264 247.963 5.0808C247.233 5.14594 246.419 5.21108 245.52 5.27622C245.52 5.56283 245.52 5.84944 245.52 6.13605C245.533 6.40963 245.546 6.68972 245.559 6.97633C246.354 6.89817 247.096 6.80046 247.787 6.68321C248.477 6.56596 249.024 6.4422 249.428 6.31192V9.10636C248.933 9.22361 248.354 9.32783 247.689 9.41903C247.038 9.49719 246.347 9.56884 245.618 9.63398L245.676 12.0376C246.64 12.3242 247.559 12.6825 248.432 13.1124C249.318 13.5293 250.158 13.9852 250.953 14.4803C250.718 14.6496 250.477 14.8841 250.23 15.1838C249.982 15.4834 249.754 15.7896 249.546 16.1022C249.35 16.4149 249.2 16.6885 249.096 16.923C248.041 16.0371 246.914 15.3271 245.715 14.793C245.65 15.8091 245.253 16.5973 244.523 17.1575C243.807 17.7307 242.693 17.9913 241.182 17.9391ZM241.26 15.3792C242.367 15.4313 242.921 15.0796 242.921 14.324V13.9136C242.673 13.8745 242.432 13.8419 242.198 13.8159C241.963 13.7898 241.729 13.7768 241.494 13.7768C241.025 13.7768 240.661 13.855 240.4 14.0113C240.153 14.1546 240.029 14.3435 240.029 14.578C240.029 15.073 240.439 15.3401 241.26 15.3792Z" fill="var(--fill-0, #3D3D5C)"/>
<path d="M262.873 17.3724C261.753 17.3724 260.847 17.2617 260.157 17.0402C259.466 16.8188 258.965 16.4475 258.652 15.9264C258.352 15.4053 258.202 14.6952 258.202 13.7963V0.859829L261.329 1.0357C261.303 1.2702 261.277 1.648 261.251 2.16911C261.225 2.67719 261.205 3.21784 261.192 3.79106C261.179 4.27309 261.166 4.80722 261.153 5.39347C261.153 5.97971 261.153 6.62459 261.153 7.32808V13.1905C261.153 13.6986 261.297 14.0439 261.583 14.2262C261.87 14.3956 262.358 14.4803 263.049 14.4803C264.391 14.4803 265.622 14.2458 266.742 13.7768C267.876 13.2948 268.879 12.676 269.752 11.9203C269.765 12.246 269.791 12.6173 269.83 13.0342C269.882 13.4381 269.94 13.8289 270.006 14.2067C270.084 14.5715 270.149 14.8581 270.201 15.0665C269.276 15.757 268.175 16.3107 266.898 16.7276C265.635 17.1575 264.293 17.3724 262.873 17.3724Z" fill="var(--fill-0, #3D3D5C)"/>
<path d="M277.392 17.7633C277.158 17.62 276.871 17.4636 276.532 17.2943C276.194 17.1379 275.848 16.9946 275.497 16.8644C275.158 16.7341 274.845 16.6364 274.559 16.5712C274.897 16.1022 275.249 15.503 275.614 14.7734C275.979 14.0439 276.344 13.2296 276.708 12.3307C277.073 11.4318 277.425 10.5003 277.764 9.53628C278.102 8.5592 278.415 7.59515 278.702 6.64413C277.985 6.70926 277.314 6.75486 276.689 6.78092C276.076 6.80697 275.575 6.80046 275.184 6.76138L274.871 3.88877C275.393 3.95391 276.057 3.97996 276.865 3.96693C277.685 3.95391 278.545 3.9018 279.444 3.8106C279.587 3.17225 279.698 2.586 279.776 2.05186C279.868 1.5047 279.92 1.02919 279.933 0.62533L282.962 1.0357C282.91 1.37442 282.838 1.74571 282.747 2.14957C282.655 2.55343 282.558 2.98334 282.454 3.43931C283.405 3.28298 284.199 3.10059 284.838 2.89215L285.209 5.56934C284.818 5.69962 284.31 5.82989 283.685 5.96017C283.072 6.07742 282.408 6.18816 281.691 6.29238C281.392 7.33459 281.06 8.40287 280.695 9.49719C280.343 10.5785 279.978 11.6337 279.6 12.6629C279.223 13.6921 278.845 14.6496 278.467 15.5355C278.089 16.4084 277.731 17.151 277.392 17.7633ZM290.583 16.9621C289.528 17.1445 288.498 17.2161 287.495 17.177C286.505 17.151 285.58 17.0402 284.72 16.8448C283.874 16.6494 283.124 16.3888 282.473 16.0632C281.835 15.7244 281.34 15.3401 280.988 14.9102L282.356 12.702C282.838 13.1449 283.509 13.5032 284.369 13.7768C285.241 14.0504 286.251 14.2067 287.398 14.2458C288.544 14.2849 289.775 14.1741 291.091 13.9136C290.987 14.1872 290.889 14.5129 290.798 14.8907C290.72 15.2554 290.661 15.6267 290.622 16.0045C290.583 16.3693 290.57 16.6885 290.583 16.9621ZM289.977 10.1225C289.56 9.97922 289.065 9.85545 288.492 9.75123C287.919 9.63398 287.313 9.54279 286.675 9.47765C286.036 9.39948 285.411 9.34737 284.799 9.32132C284.186 9.28224 283.626 9.27572 283.118 9.30178L283.489 6.50734C283.971 6.49431 284.538 6.50734 285.189 6.54642C285.854 6.57247 286.538 6.62459 287.241 6.70275C287.945 6.78092 288.616 6.8656 289.254 6.95679C289.905 7.04799 290.466 7.14569 290.935 7.24991L289.977 10.1225Z" fill="var(--fill-0, #3D3D5C)"/>
<path d="M296.797 17.9196C296.263 17.9196 295.768 17.7828 295.312 17.5092C294.856 17.2487 294.491 16.8904 294.218 16.4344C293.957 15.9785 293.827 15.4704 293.827 14.9102C293.827 14.363 293.957 13.868 294.218 13.425C294.491 12.9691 294.849 12.6108 295.292 12.3503C295.748 12.0767 296.25 11.9399 296.797 11.9399C297.357 11.9399 297.859 12.0767 298.302 12.3503C298.758 12.6108 299.116 12.9691 299.377 13.425C299.65 13.868 299.787 14.363 299.787 14.9102C299.787 15.4704 299.65 15.9785 299.377 16.4344C299.116 16.8904 298.758 17.2487 298.302 17.5092C297.846 17.7828 297.344 17.9196 296.797 17.9196ZM296.797 16.6494C297.279 16.6494 297.683 16.48 298.009 16.1413C298.347 15.7896 298.517 15.3857 298.517 14.9297C298.517 14.4607 298.354 14.0569 298.028 13.7182C297.702 13.3664 297.292 13.1905 296.797 13.1905C296.315 13.1905 295.905 13.3599 295.566 13.6986C295.24 14.0373 295.077 14.4477 295.077 14.9297C295.077 15.3987 295.24 15.8026 295.566 16.1413C295.905 16.48 296.315 16.6494 296.797 16.6494Z" fill="var(--fill-0, #3D3D5C)"/>
</g>
</svg>
