<svg preserveAspectRatio="none" width="100%" height="100%" overflow="visible" style="display: block;" viewBox="0 0 194.48 22.464" fill="none" xmlns="http://www.w3.org/2000/svg" xmlns:xlink="http://www.w3.org/1999/xlink">
<g id="Frame 628509">
<g id="&#231;&#132;&#161;&#230;&#150;&#153;&#227;&#131;&#129;&#227;&#130;&#177;&#227;&#131;&#131;&#227;&#131;&#136;">
<path d="M19.848 22.392C19.624 21.976 19.32 21.464 18.936 20.856C18.568 20.248 18.168 19.64 17.736 19.032C17.32 18.424 16.92 17.912 16.536 17.496L18.456 16.104H1.416V13.728H4.056V10.488H0.528V8.088H4.056V5.616C3.72 5.984 3.392 6.328 3.072 6.648C2.752 6.968 2.448 7.24 2.16 7.464C1.904 7.192 1.56 6.888 1.128 6.552C0.712 6.216 0.336 5.968 0 5.808C0.432 5.472 0.88 5.064 1.344 4.584C1.808 4.088 2.256 3.568 2.688 3.024C3.136 2.464 3.528 1.92 3.864 1.392C4.2 0.863999 4.448 0.4 4.608 0L7.32 0.839999C7.208 1.096 7.064 1.376 6.888 1.68C6.728 1.968 6.544 2.272 6.336 2.592H21.168V4.968H18.888V8.088H22.344V10.488H18.888V13.728H21.624V16.104H18.648C19.064 16.536 19.496 17.04 19.944 17.616C20.408 18.192 20.848 18.768 21.264 19.344C21.68 19.92 22.016 20.432 22.272 20.88C21.888 21.04 21.456 21.272 20.976 21.576C20.496 21.896 20.12 22.168 19.848 22.392ZM2.76 22.464C2.472 22.192 2.096 21.912 1.632 21.624C1.168 21.352 0.752 21.152 0.384 21.024C0.784 20.672 1.2 20.232 1.632 19.704C2.064 19.176 2.472 18.616 2.856 18.024C3.256 17.432 3.576 16.864 3.816 16.32L6.288 17.496C6 18.088 5.656 18.696 5.256 19.32C4.856 19.928 4.44 20.504 4.008 21.048C3.576 21.592 3.16 22.064 2.76 22.464ZM13.224 22.2C13.16 21.736 13.056 21.192 12.912 20.568C12.784 19.96 12.64 19.36 12.48 18.768C12.336 18.16 12.184 17.656 12.024 17.256L14.592 16.56C14.752 16.928 14.92 17.416 15.096 18.024C15.272 18.616 15.432 19.224 15.576 19.848C15.736 20.472 15.856 21.032 15.936 21.528C15.584 21.576 15.128 21.664 14.568 21.792C14.024 21.92 13.576 22.056 13.224 22.2ZM8.208 22.32C8.176 21.872 8.112 21.336 8.016 20.712C7.92 20.104 7.816 19.504 7.704 18.912C7.592 18.304 7.48 17.8 7.368 17.4L9.96 16.872C10.104 17.272 10.24 17.768 10.368 18.36C10.512 18.952 10.632 19.56 10.728 20.184C10.84 20.808 10.912 21.352 10.944 21.816C10.72 21.832 10.44 21.864 10.104 21.912C9.768 21.976 9.424 22.04 9.072 22.104C8.736 22.168 8.448 22.24 8.208 22.32ZM6.6 13.728H8.136V10.488H6.6V13.728ZM14.784 13.728H16.32V10.488H14.784V13.728ZM10.704 13.728H12.216V10.488H10.704V13.728ZM6.6 8.088H8.136V4.968H6.6V8.088ZM14.784 8.088H16.32V4.968H14.784V8.088ZM10.704 8.088H12.216V4.968H10.704V8.088Z" fill="var(--fill-0, #F02E4A)"/>
<path d="M19.848 22.392C19.624 21.976 19.32 21.464 18.936 20.856C18.568 20.248 18.168 19.64 17.736 19.032C17.32 18.424 16.92 17.912 16.536 17.496L18.456 16.104H1.416V13.728H4.056V10.488H0.528V8.088H4.056V5.616C3.72 5.984 3.392 6.328 3.072 6.648C2.752 6.968 2.448 7.24 2.16 7.464C1.904 7.192 1.56 6.888 1.128 6.552C0.712 6.216 0.336 5.968 0 5.808C0.432 5.472 0.88 5.064 1.344 4.584C1.808 4.088 2.256 3.568 2.688 3.024C3.136 2.464 3.528 1.92 3.864 1.392C4.2 0.863999 4.448 0.4 4.608 0L7.32 0.839999C7.208 1.096 7.064 1.376 6.888 1.68C6.728 1.968 6.544 2.272 6.336 2.592H21.168V4.968H18.888V8.088H22.344V10.488H18.888V13.728H21.624V16.104H18.648C19.064 16.536 19.496 17.04 19.944 17.616C20.408 18.192 20.848 18.768 21.264 19.344C21.68 19.92 22.016 20.432 22.272 20.88C21.888 21.04 21.456 21.272 20.976 21.576C20.496 21.896 20.12 22.168 19.848 22.392ZM2.76 22.464C2.472 22.192 2.096 21.912 1.632 21.624C1.168 21.352 0.752 21.152 0.384 21.024C0.784 20.672 1.2 20.232 1.632 19.704C2.064 19.176 2.472 18.616 2.856 18.024C3.256 17.432 3.576 16.864 3.816 16.32L6.288 17.496C6 18.088 5.656 18.696 5.256 19.32C4.856 19.928 4.44 20.504 4.008 21.048C3.576 21.592 3.16 22.064 2.76 22.464ZM13.224 22.2C13.16 21.736 13.056 21.192 12.912 20.568C12.784 19.96 12.64 19.36 12.48 18.768C12.336 18.16 12.184 17.656 12.024 17.256L14.592 16.56C14.752 16.928 14.92 17.416 15.096 18.024C15.272 18.616 15.432 19.224 15.576 19.848C15.736 20.472 15.856 21.032 15.936 21.528C15.584 21.576 15.128 21.664 14.568 21.792C14.024 21.92 13.576 22.056 13.224 22.2ZM8.208 22.32C8.176 21.872 8.112 21.336 8.016 20.712C7.92 20.104 7.816 19.504 7.704 18.912C7.592 18.304 7.48 17.8 7.368 17.4L9.96 16.872C10.104 17.272 10.24 17.768 10.368 18.36C10.512 18.952 10.632 19.56 10.728 20.184C10.84 20.808 10.912 21.352 10.944 21.816C10.72 21.832 10.44 21.864 10.104 21.912C9.768 21.976 9.424 22.04 9.072 22.104C8.736 22.168 8.448 22.24 8.208 22.32ZM6.6 13.728H8.136V10.488H6.6V13.728ZM14.784 13.728H16.32V10.488H14.784V13.728ZM10.704 13.728H12.216V10.488H10.704V13.728ZM6.6 8.088H8.136V4.968H6.6V8.088ZM14.784 8.088H16.32V4.968H14.784V8.088ZM10.704 8.088H12.216V4.968H10.704V8.088Z" fill="url(#pattern0_1327_45353)"/>
<path d="M28.992 22.224V14.496C28.496 15.232 27.976 15.92 27.432 16.56C26.904 17.2 26.384 17.752 25.872 18.216C25.648 17.928 25.352 17.616 24.984 17.28C24.616 16.944 24.272 16.688 23.952 16.512C24.496 16.064 25.056 15.512 25.632 14.856C26.224 14.184 26.784 13.472 27.312 12.72C27.84 11.952 28.288 11.208 28.656 10.488H24.816V8.016H28.992V0.503999H31.608V8.016H35.136V10.488H31.608V10.728C31.896 11.08 32.264 11.496 32.712 11.976C33.176 12.44 33.648 12.888 34.128 13.32C34.608 13.752 35.032 14.104 35.4 14.376C36.2 14.28 37.144 14.144 38.232 13.968C39.32 13.776 40.408 13.576 41.496 13.368V5.496C41.32 5.64 41.112 5.832 40.872 6.072C40.648 6.296 40.424 6.52 40.2 6.744C39.992 6.968 39.832 7.16 39.72 7.32C39.272 6.856 38.744 6.344 38.136 5.784C37.528 5.224 36.928 4.768 36.336 4.416L38.088 2.592C38.648 2.944 39.24 3.4 39.864 3.96C40.504 4.504 41.048 5 41.496 5.448V0.48H44.184V12.84C44.744 12.712 45.248 12.6 45.696 12.504C46.144 12.392 46.504 12.288 46.776 12.192L46.944 14.808C46.592 14.904 46.184 15.008 45.72 15.12C45.256 15.216 44.744 15.328 44.184 15.456V22.224H41.496V16.032C40.344 16.256 39.216 16.472 38.112 16.68C37.008 16.872 36.088 17.024 35.352 17.136L34.896 15.072C34.688 15.312 34.48 15.56 34.272 15.816C34.08 16.056 33.936 16.264 33.84 16.44C33.488 16.136 33.12 15.784 32.736 15.384C32.352 14.984 31.976 14.56 31.608 14.112V22.224H28.992ZM39.096 12.504C38.648 12.04 38.112 11.544 37.488 11.016C36.864 10.472 36.248 10.024 35.64 9.672L37.296 7.8C37.68 8.04 38.088 8.328 38.52 8.664C38.952 8.984 39.368 9.32 39.768 9.672C40.184 10.008 40.544 10.32 40.848 10.608C40.688 10.736 40.496 10.92 40.272 11.16C40.048 11.384 39.824 11.624 39.6 11.88C39.392 12.12 39.224 12.328 39.096 12.504ZM34.104 7.44C33.848 7.296 33.496 7.128 33.048 6.936C32.6 6.728 32.24 6.592 31.968 6.528C32.144 6.208 32.344 5.792 32.568 5.28C32.808 4.752 33.024 4.208 33.216 3.648C33.408 3.072 33.544 2.584 33.624 2.184L35.904 2.856C35.84 3.144 35.728 3.504 35.568 3.936C35.424 4.352 35.264 4.792 35.088 5.256C34.912 5.704 34.736 6.128 34.56 6.528C34.384 6.912 34.232 7.216 34.104 7.44ZM26.28 7.392C26.2 7.008 26.064 6.552 25.872 6.024C25.696 5.48 25.496 4.944 25.272 4.416C25.064 3.888 24.856 3.456 24.648 3.12L26.832 2.256C27.024 2.576 27.232 3.016 27.456 3.576C27.696 4.12 27.912 4.672 28.104 5.232C28.312 5.776 28.456 6.224 28.536 6.576C28.216 6.64 27.816 6.76 27.336 6.936C26.856 7.112 26.504 7.264 26.28 7.392Z" fill="var(--fill-0, #F02E4A)"/>
<path d="M28.992 22.224V14.496C28.496 15.232 27.976 15.92 27.432 16.56C26.904 17.2 26.384 17.752 25.872 18.216C25.648 17.928 25.352 17.616 24.984 17.28C24.616 16.944 24.272 16.688 23.952 16.512C24.496 16.064 25.056 15.512 25.632 14.856C26.224 14.184 26.784 13.472 27.312 12.72C27.84 11.952 28.288 11.208 28.656 10.488H24.816V8.016H28.992V0.503999H31.608V8.016H35.136V10.488H31.608V10.728C31.896 11.08 32.264 11.496 32.712 11.976C33.176 12.44 33.648 12.888 34.128 13.32C34.608 13.752 35.032 14.104 35.4 14.376C36.2 14.28 37.144 14.144 38.232 13.968C39.32 13.776 40.408 13.576 41.496 13.368V5.496C41.32 5.64 41.112 5.832 40.872 6.072C40.648 6.296 40.424 6.52 40.2 6.744C39.992 6.968 39.832 7.16 39.72 7.32C39.272 6.856 38.744 6.344 38.136 5.784C37.528 5.224 36.928 4.768 36.336 4.416L38.088 2.592C38.648 2.944 39.24 3.4 39.864 3.96C40.504 4.504 41.048 5 41.496 5.448V0.48H44.184V12.84C44.744 12.712 45.248 12.6 45.696 12.504C46.144 12.392 46.504 12.288 46.776 12.192L46.944 14.808C46.592 14.904 46.184 15.008 45.72 15.12C45.256 15.216 44.744 15.328 44.184 15.456V22.224H41.496V16.032C40.344 16.256 39.216 16.472 38.112 16.68C37.008 16.872 36.088 17.024 35.352 17.136L34.896 15.072C34.688 15.312 34.48 15.56 34.272 15.816C34.08 16.056 33.936 16.264 33.84 16.44C33.488 16.136 33.12 15.784 32.736 15.384C32.352 14.984 31.976 14.56 31.608 14.112V22.224H28.992ZM39.096 12.504C38.648 12.04 38.112 11.544 37.488 11.016C36.864 10.472 36.248 10.024 35.64 9.672L37.296 7.8C37.68 8.04 38.088 8.328 38.52 8.664C38.952 8.984 39.368 9.32 39.768 9.672C40.184 10.008 40.544 10.32 40.848 10.608C40.688 10.736 40.496 10.92 40.272 11.16C40.048 11.384 39.824 11.624 39.6 11.88C39.392 12.12 39.224 12.328 39.096 12.504ZM34.104 7.44C33.848 7.296 33.496 7.128 33.048 6.936C32.6 6.728 32.24 6.592 31.968 6.528C32.144 6.208 32.344 5.792 32.568 5.28C32.808 4.752 33.024 4.208 33.216 3.648C33.408 3.072 33.544 2.584 33.624 2.184L35.904 2.856C35.84 3.144 35.728 3.504 35.568 3.936C35.424 4.352 35.264 4.792 35.088 5.256C34.912 5.704 34.736 6.128 34.56 6.528C34.384 6.912 34.232 7.216 34.104 7.44ZM26.28 7.392C26.2 7.008 26.064 6.552 25.872 6.024C25.696 5.48 25.496 4.944 25.272 4.416C25.064 3.888 24.856 3.456 24.648 3.12L26.832 2.256C27.024 2.576 27.232 3.016 27.456 3.576C27.696 4.12 27.912 4.672 28.104 5.232C28.312 5.776 28.456 6.224 28.536 6.576C28.216 6.64 27.816 6.76 27.336 6.936C26.856 7.112 26.504 7.264 26.28 7.392Z" fill="url(#pattern1_1327_45353)"/>
<path d="M53.064 21.072C52.968 20.816 52.832 20.52 52.656 20.184C52.48 19.832 52.288 19.496 52.08 19.176C51.872 18.84 51.68 18.584 51.504 18.408C53.696 17.928 55.368 17.168 56.52 16.128C57.688 15.088 58.368 13.68 58.56 11.904C57.168 11.92 55.84 11.944 54.576 11.976C53.312 12.008 52.232 12.04 51.336 12.072C50.456 12.088 49.88 12.112 49.608 12.144L49.416 9.384C49.592 9.4 49.96 9.416 50.52 9.432C51.096 9.432 51.808 9.432 52.656 9.432C53.504 9.416 54.44 9.4 55.464 9.384C56.488 9.368 57.544 9.352 58.632 9.336V6.024C56.712 6.296 54.944 6.456 53.328 6.504C53.296 6.248 53.232 5.952 53.136 5.616C53.04 5.264 52.928 4.92 52.8 4.584C52.688 4.248 52.576 3.984 52.464 3.792C53.504 3.808 54.608 3.768 55.776 3.672C56.944 3.576 58.112 3.44 59.28 3.264C60.448 3.088 61.552 2.872 62.592 2.616C63.632 2.344 64.536 2.048 65.304 1.728L66.432 4.176C65.792 4.432 65.056 4.672 64.224 4.896C63.408 5.12 62.544 5.328 61.632 5.52V9.264C62.88 9.232 64.048 9.2 65.136 9.168C66.224 9.136 67.144 9.104 67.896 9.072C68.648 9.024 69.128 8.984 69.336 8.952V11.832C69.096 11.816 68.592 11.808 67.824 11.808C67.072 11.808 66.152 11.816 65.064 11.832C63.976 11.832 62.816 11.84 61.584 11.856C61.392 14.272 60.584 16.224 59.16 17.712C57.736 19.2 55.704 20.32 53.064 21.072Z" fill="var(--fill-0, #F02E4A)"/>
<path d="M53.064 21.072C52.968 20.816 52.832 20.52 52.656 20.184C52.48 19.832 52.288 19.496 52.08 19.176C51.872 18.84 51.68 18.584 51.504 18.408C53.696 17.928 55.368 17.168 56.52 16.128C57.688 15.088 58.368 13.68 58.56 11.904C57.168 11.92 55.84 11.944 54.576 11.976C53.312 12.008 52.232 12.04 51.336 12.072C50.456 12.088 49.88 12.112 49.608 12.144L49.416 9.384C49.592 9.4 49.96 9.416 50.52 9.432C51.096 9.432 51.808 9.432 52.656 9.432C53.504 9.416 54.44 9.4 55.464 9.384C56.488 9.368 57.544 9.352 58.632 9.336V6.024C56.712 6.296 54.944 6.456 53.328 6.504C53.296 6.248 53.232 5.952 53.136 5.616C53.04 5.264 52.928 4.92 52.8 4.584C52.688 4.248 52.576 3.984 52.464 3.792C53.504 3.808 54.608 3.768 55.776 3.672C56.944 3.576 58.112 3.44 59.28 3.264C60.448 3.088 61.552 2.872 62.592 2.616C63.632 2.344 64.536 2.048 65.304 1.728L66.432 4.176C65.792 4.432 65.056 4.672 64.224 4.896C63.408 5.12 62.544 5.328 61.632 5.52V9.264C62.88 9.232 64.048 9.2 65.136 9.168C66.224 9.136 67.144 9.104 67.896 9.072C68.648 9.024 69.128 8.984 69.336 8.952V11.832C69.096 11.816 68.592 11.808 67.824 11.808C67.072 11.808 66.152 11.816 65.064 11.832C63.976 11.832 62.816 11.84 61.584 11.856C61.392 14.272 60.584 16.224 59.16 17.712C57.736 19.2 55.704 20.32 53.064 21.072Z" fill="url(#pattern2_1327_45353)"/>
<path d="M80.136 21.696C79.896 21.328 79.56 20.912 79.128 20.448C78.696 19.984 78.296 19.632 77.928 19.392C79.928 18.336 81.448 17.016 82.488 15.432C83.528 13.832 84.128 11.968 84.288 9.84H79.68C79.088 10.576 78.464 11.256 77.808 11.88C77.152 12.504 76.456 13.072 75.72 13.584C75.464 13.28 75.12 12.92 74.688 12.504C74.256 12.088 73.856 11.776 73.488 11.568C74.672 10.8 75.736 9.872 76.68 8.784C77.624 7.696 78.432 6.52 79.104 5.256C79.792 3.992 80.304 2.736 80.64 1.488L83.544 2.352C83.304 3.168 83.016 3.968 82.68 4.752C82.36 5.52 81.992 6.272 81.576 7.008H93.072V9.84H87.288C87.128 12.448 86.448 14.728 85.248 16.68C84.064 18.632 82.36 20.304 80.136 21.696Z" fill="var(--fill-0, #F02E4A)"/>
<path d="M80.136 21.696C79.896 21.328 79.56 20.912 79.128 20.448C78.696 19.984 78.296 19.632 77.928 19.392C79.928 18.336 81.448 17.016 82.488 15.432C83.528 13.832 84.128 11.968 84.288 9.84H79.68C79.088 10.576 78.464 11.256 77.808 11.88C77.152 12.504 76.456 13.072 75.72 13.584C75.464 13.28 75.12 12.92 74.688 12.504C74.256 12.088 73.856 11.776 73.488 11.568C74.672 10.8 75.736 9.872 76.68 8.784C77.624 7.696 78.432 6.52 79.104 5.256C79.792 3.992 80.304 2.736 80.64 1.488L83.544 2.352C83.304 3.168 83.016 3.968 82.68 4.752C82.36 5.52 81.992 6.272 81.576 7.008H93.072V9.84H87.288C87.128 12.448 86.448 14.728 85.248 16.68C84.064 18.632 82.36 20.304 80.136 21.696Z" fill="url(#pattern3_1327_45353)"/>
<path d="M103.272 20.832C103.144 20.496 102.952 20.112 102.696 19.68C102.44 19.232 102.192 18.888 101.952 18.648C104.72 17.992 106.952 16.824 108.648 15.144C110.36 13.464 111.416 11.184 111.816 8.304L114.144 8.688C113.792 11.008 113.12 12.96 112.128 14.544C111.152 16.128 109.912 17.424 108.408 18.432C106.92 19.424 105.208 20.224 103.272 20.832ZM101.784 13.464C101.736 13.144 101.632 12.736 101.472 12.24C101.312 11.744 101.128 11.256 100.92 10.776C100.728 10.296 100.552 9.928 100.392 9.672L102.576 8.88C102.736 9.152 102.912 9.536 103.104 10.032C103.296 10.528 103.472 11.032 103.632 11.544C103.808 12.04 103.936 12.464 104.016 12.816L101.784 13.464ZM105.888 12.552C105.856 12.232 105.768 11.824 105.624 11.328C105.48 10.816 105.32 10.32 105.144 9.84C104.968 9.344 104.8 8.968 104.64 8.712L106.824 7.992C106.968 8.28 107.128 8.672 107.304 9.168C107.496 9.664 107.664 10.168 107.808 10.68C107.968 11.176 108.08 11.6 108.144 11.952L105.888 12.552Z" fill="var(--fill-0, #F02E4A)"/>
<path d="M103.272 20.832C103.144 20.496 102.952 20.112 102.696 19.68C102.44 19.232 102.192 18.888 101.952 18.648C104.72 17.992 106.952 16.824 108.648 15.144C110.36 13.464 111.416 11.184 111.816 8.304L114.144 8.688C113.792 11.008 113.12 12.96 112.128 14.544C111.152 16.128 109.912 17.424 108.408 18.432C106.92 19.424 105.208 20.224 103.272 20.832ZM101.784 13.464C101.736 13.144 101.632 12.736 101.472 12.24C101.312 11.744 101.128 11.256 100.92 10.776C100.728 10.296 100.552 9.928 100.392 9.672L102.576 8.88C102.736 9.152 102.912 9.536 103.104 10.032C103.296 10.528 103.472 11.032 103.632 11.544C103.808 12.04 103.936 12.464 104.016 12.816L101.784 13.464ZM105.888 12.552C105.856 12.232 105.768 11.824 105.624 11.328C105.48 10.816 105.32 10.32 105.144 9.84C104.968 9.344 104.8 8.968 104.64 8.712L106.824 7.992C106.968 8.28 107.128 8.672 107.304 9.168C107.496 9.664 107.664 10.168 107.808 10.68C107.968 11.176 108.08 11.6 108.144 11.952L105.888 12.552Z" fill="url(#pattern4_1327_45353)"/>
<path d="M128.712 21.264V1.92H131.64V9.192L132.72 7.656C133.104 7.928 133.608 8.272 134.232 8.688C134.872 9.088 135.552 9.504 136.272 9.936C136.992 10.352 137.688 10.736 138.36 11.088C139.032 11.44 139.6 11.704 140.064 11.88C139.872 12.056 139.648 12.312 139.392 12.648C139.152 12.968 138.928 13.304 138.72 13.656C138.512 13.992 138.344 14.28 138.216 14.52C137.832 14.312 137.352 14.048 136.776 13.728C136.216 13.392 135.616 13.024 134.976 12.624C134.352 12.224 133.744 11.832 133.152 11.448C132.576 11.048 132.072 10.688 131.64 10.368V21.264H128.712Z" fill="var(--fill-0, #F02E4A)"/>
<path d="M128.712 21.264V1.92H131.64V9.192L132.72 7.656C133.104 7.928 133.608 8.272 134.232 8.688C134.872 9.088 135.552 9.504 136.272 9.936C136.992 10.352 137.688 10.736 138.36 11.088C139.032 11.44 139.6 11.704 140.064 11.88C139.872 12.056 139.648 12.312 139.392 12.648C139.152 12.968 138.928 13.304 138.72 13.656C138.512 13.992 138.344 14.28 138.216 14.52C137.832 14.312 137.352 14.048 136.776 13.728C136.216 13.392 135.616 13.024 134.976 12.624C134.352 12.224 133.744 11.832 133.152 11.448C132.576 11.048 132.072 10.688 131.64 10.368V21.264H128.712Z" fill="url(#pattern5_1327_45353)"/>
</g>
<g id="&#232;&#180;&#136;&#229;&#145;&#136;&#228;&#184;&#173;">
<path d="M153.92 15.84V10.4H155.984C155.813 10.0907 155.6 9.75467 155.344 9.392C155.099 9.01867 154.869 8.71467 154.656 8.48L156.208 7.776C156.347 7.92533 156.523 8.144 156.736 8.432C156.949 8.72 157.157 9.01333 157.36 9.312C157.563 9.6 157.712 9.82933 157.808 10C157.691 10.0427 157.563 10.1013 157.424 10.176C157.285 10.2507 157.147 10.3253 157.008 10.4H158.624C158.784 10.1547 158.955 9.86667 159.136 9.536C159.317 9.19467 159.488 8.864 159.648 8.544C159.808 8.21333 159.931 7.94133 160.016 7.728L161.728 8.288C161.6 8.55467 161.424 8.89067 161.2 9.296C160.976 9.69067 160.752 10.0587 160.528 10.4H162.8V15.84H153.92ZM149.568 22.448C149.387 22.3413 149.141 22.2133 148.832 22.064C148.523 21.9253 148.267 21.8293 148.064 21.776C148.267 21.5307 148.469 21.232 148.672 20.88C148.875 20.5173 149.061 20.144 149.232 19.76C149.403 19.376 149.531 19.0347 149.616 18.736H148.896V8.432H153.392V18.736H149.68L151.12 19.2C151.024 19.5307 150.891 19.8987 150.72 20.304C150.549 20.6987 150.363 21.0827 150.16 21.456C149.957 21.8293 149.76 22.16 149.568 22.448ZM154.832 22.352V16.56H161.824V22.352H154.832ZM153.024 22.432C152.832 22.176 152.635 21.8667 152.432 21.504C152.229 21.152 152.037 20.784 151.856 20.4C151.685 20.0053 151.541 19.6427 151.424 19.312L152.832 18.8C152.981 19.2587 153.205 19.7493 153.504 20.272C153.803 20.784 154.096 21.216 154.384 21.568C154.181 21.6747 153.947 21.808 153.68 21.968C153.424 22.1387 153.205 22.2933 153.024 22.432ZM156.592 21.056H160.064V20.032H156.592V21.056ZM156.592 18.848H160.064V17.856H156.592V18.848ZM150.4 17.184H151.888V15.664H150.4V17.184ZM150.4 14.256H151.888V12.816H150.4V14.256ZM150.4 11.408H151.888V9.968H150.4V11.408ZM159.168 14.576H161.072V13.664H159.168V14.576ZM159.168 12.576H161.072V11.68H159.168V12.576ZM155.664 14.576H157.504V13.664H155.664V14.576ZM155.664 12.576H157.504V11.68H155.664V12.576Z" fill="var(--fill-0, #3D3D5C)"/>
<path d="M164.64 21.968V20.336H170.656V19.072H166.272V17.584H170.656V16.384H165.376V14.8H178V16.384H172.672V17.584H177.104V19.072H172.672V20.336H178.704V21.968H164.64ZM166.704 13.744V8.304H176.672V13.744H166.704ZM168.704 12.08H174.656V9.968H168.704V12.08Z" fill="var(--fill-0, #3D3D5C)"/>
<path d="M186.704 22.464V17.312H180.896V10.944H186.704V7.888H188.672V10.944H194.48V17.312H188.672V22.464H186.704ZM188.672 15.456H192.496V12.704H188.672V15.456ZM182.912 15.456H186.704V12.704H182.912V15.456Z" fill="var(--fill-0, #3D3D5C)"/>
</g>
</g>
<defs>
<pattern id="pattern0_1327_45353" patternUnits="userSpaceOnUse" patternTransform="matrix(20 0 0 20 0 0)" preserveAspectRatio="none" viewBox="0 0 20 20" width="1" height="1">
<g id="pattern0_1327_45353_inner">
<g id="Frame 628512" opacity="0.5" clip-path="url(#clip0_1327_45353)">
<rect id="Rectangle 4124" x="17.9146" y="-3.20355" width="7.47968" height="29.8657" transform="rotate(45 17.9146 -3.20355)" fill="var(--fill-0, #F898A6)"/>
</g>
</g>
</pattern><pattern id="pattern1_1327_45353" patternUnits="userSpaceOnUse" patternTransform="matrix(20 0 0 20 0 0)" preserveAspectRatio="none" viewBox="0 0 20 20" width="1" height="1">
<g id="pattern1_1327_45353_inner">
<g id="Frame 628512" opacity="0.5" clip-path="url(#clip1_1327_45353)">
<rect id="Rectangle 4124" x="17.9146" y="-3.20355" width="7.47968" height="29.8657" transform="rotate(45 17.9146 -3.20355)" fill="var(--fill-0, #F898A6)"/>
</g>
</g>
</pattern><pattern id="pattern2_1327_45353" patternUnits="userSpaceOnUse" patternTransform="matrix(20 0 0 20 0 0)" preserveAspectRatio="none" viewBox="0 0 20 20" width="1" height="1">
<g id="pattern2_1327_45353_inner">
<g id="Frame 628512" opacity="0.5" clip-path="url(#clip2_1327_45353)">
<rect id="Rectangle 4124" x="17.9146" y="-3.20355" width="7.47968" height="29.8657" transform="rotate(45 17.9146 -3.20355)" fill="var(--fill-0, #F898A6)"/>
</g>
</g>
</pattern><pattern id="pattern3_1327_45353" patternUnits="userSpaceOnUse" patternTransform="matrix(20 0 0 20 0 0)" preserveAspectRatio="none" viewBox="0 0 20 20" width="1" height="1">
<g id="pattern3_1327_45353_inner">
<g id="Frame 628512" opacity="0.5" clip-path="url(#clip3_1327_45353)">
<rect id="Rectangle 4124" x="17.9146" y="-3.20355" width="7.47968" height="29.8657" transform="rotate(45 17.9146 -3.20355)" fill="var(--fill-0, #F898A6)"/>
</g>
</g>
</pattern><pattern id="pattern4_1327_45353" patternUnits="userSpaceOnUse" patternTransform="matrix(20 0 0 20 0 0)" preserveAspectRatio="none" viewBox="0 0 20 20" width="1" height="1">
<g id="pattern4_1327_45353_inner">
<g id="Frame 628512" opacity="0.5" clip-path="url(#clip4_1327_45353)">
<rect id="Rectangle 4124" x="17.9146" y="-3.20355" width="7.47968" height="29.8657" transform="rotate(45 17.9146 -3.20355)" fill="var(--fill-0, #F898A6)"/>
</g>
</g>
</pattern><pattern id="pattern5_1327_45353" patternUnits="userSpaceOnUse" patternTransform="matrix(20 0 0 20 0 0)" preserveAspectRatio="none" viewBox="0 0 20 20" width="1" height="1">
<g id="pattern5_1327_45353_inner">
<g id="Frame 628512" opacity="0.5" clip-path="url(#clip5_1327_45353)">
<rect id="Rectangle 4124" x="17.9146" y="-3.20355" width="7.47968" height="29.8657" transform="rotate(45 17.9146 -3.20355)" fill="var(--fill-0, #F898A6)"/>
</g>
</g>
</pattern><clipPath id="clip0_1327_45353">
<rect width="20" height="20" fill="white"/>
</clipPath>
<clipPath id="clip1_1327_45353">
<rect width="20" height="20" fill="white"/>
</clipPath>
<clipPath id="clip2_1327_45353">
<rect width="20" height="20" fill="white"/>
</clipPath>
<clipPath id="clip3_1327_45353">
<rect width="20" height="20" fill="white"/>
</clipPath>
<clipPath id="clip4_1327_45353">
<rect width="20" height="20" fill="white"/>
</clipPath>
<clipPath id="clip5_1327_45353">
<rect width="20" height="20" fill="white"/>
</clipPath>
</defs>
</svg>
