<svg preserveAspectRatio="none" width="100%" height="100%" overflow="visible" style="display: block;" viewBox="0 0 252 47.0511" fill="none" xmlns="http://www.w3.org/2000/svg">
<g id="Union">
<path d="M233 1.5C242.665 1.5 250.5 9.33502 250.5 19C250.5 28.665 242.665 36.5 233 36.5H135.355L126.241 45L117.128 36.5H19C9.33502 36.5 1.5 28.665 1.5 19C1.5 9.33502 9.33502 1.5 19 1.5H233Z" fill="var(--fill-0, #F02E4A)"/>
<path d="M233 1.5V0V0V1.5ZM233 36.5V38V38V36.5ZM135.355 36.5V35H134.765L134.332 35.403L135.355 36.5ZM126.241 45L125.218 46.0969L126.241 47.0511L127.264 46.097L126.241 45ZM117.128 36.5L118.151 35.4031L117.719 35H117.128V36.5ZM19 36.5V38V38V36.5ZM19 1.5V0V0V1.5ZM233 1.5V3C241.837 3 249 10.1634 249 19H250.5H252C252 8.50659 243.493 3.45707e-06 233 0V1.5ZM250.5 19H249C249 27.8366 241.837 35 233 35V36.5V38C243.493 38 252 29.4934 252 19H250.5ZM233 36.5V35H135.355V36.5V38H233V36.5ZM135.355 36.5L134.332 35.403L125.218 43.903L126.241 45L127.264 46.097L136.379 37.597L135.355 36.5ZM126.241 45L127.264 43.9031L118.151 35.4031L117.128 36.5L116.105 37.5969L125.218 46.0969L126.241 45ZM117.128 36.5V35H19V36.5V38H117.128V36.5ZM19 36.5V35C10.1634 35 3 27.8366 3 19H1.5H0C0 29.4934 8.50659 38 19 38V36.5ZM1.5 19H3C3 10.1634 10.1634 3 19 3V1.5V0C8.50659 1.19209e-07 0 8.50659 0 19H1.5ZM19 1.5V3H233V1.5V0H19V1.5Z" fill="var(--stroke-0, white)"/>
</g>
</svg>
