<svg width="145" height="59" viewBox="0 0 144.53 59.0109" fill="none" xmlns="http://www.w3.org/2000/svg" xmlns:xlink="http://www.w3.org/1999/xlink">
<g id="Frame 628509">
<g id="1on1&#229;&#174;&#159;&#230;&#150;&#189;&#227;&#129;&#167;">
<path d="M45.3448 10.128V3.36L43.8808 4.32L43.1968 3.228L45.6448 1.716H46.6288V10.128H45.3448Z" fill="var(--fill-0, #3D3D5C)"/>
<path d="M51.299 10.26C50.771 10.26 50.295 10.136 49.871 9.888C49.455 9.632 49.123 9.28 48.875 8.832C48.635 8.376 48.515 7.844 48.515 7.236C48.515 6.628 48.635 6.1 48.875 5.652C49.123 5.196 49.455 4.844 49.871 4.596C50.295 4.34 50.771 4.212 51.299 4.212C51.843 4.212 52.323 4.34 52.739 4.596C53.163 4.844 53.495 5.196 53.735 5.652C53.975 6.1 54.095 6.628 54.095 7.236C54.095 7.844 53.975 8.376 53.735 8.832C53.495 9.28 53.163 9.632 52.739 9.888C52.323 10.136 51.843 10.26 51.299 10.26ZM51.299 9.036C51.723 9.036 52.067 8.88 52.331 8.568C52.603 8.256 52.739 7.812 52.739 7.236C52.739 6.66 52.603 6.216 52.331 5.904C52.067 5.592 51.723 5.436 51.299 5.436C50.883 5.436 50.543 5.592 50.279 5.904C50.015 6.216 49.883 6.66 49.883 7.236C49.883 7.812 50.015 8.256 50.279 8.568C50.543 8.88 50.883 9.036 51.299 9.036Z" fill="var(--fill-0, #3D3D5C)"/>
<path d="M55.2603 10.128V4.356H56.4723L56.5443 5.04C56.7043 4.816 56.9163 4.624 57.1803 4.464C57.4443 4.296 57.7563 4.212 58.1163 4.212C58.7163 4.212 59.2043 4.404 59.5803 4.788C59.9643 5.172 60.1563 5.736 60.1563 6.48V10.128H58.8003V6.804C58.8003 6.348 58.7083 6.008 58.5243 5.784C58.3403 5.552 58.0923 5.436 57.7803 5.436C57.4363 5.436 57.1563 5.556 56.9403 5.796C56.7243 6.028 56.6163 6.376 56.6163 6.84V10.128H55.2603Z" fill="var(--fill-0, #3D3D5C)"/>
<path d="M63.0753 10.128V3.36L61.6113 4.32L60.9273 3.228L63.3753 1.716H64.3593V10.128H63.0753Z" fill="var(--fill-0, #3D3D5C)"/>
<path d="M66.9174 11.076C66.8854 10.956 66.8334 10.808 66.7614 10.632C66.6894 10.464 66.6094 10.296 66.5214 10.128C66.4414 9.968 66.3694 9.848 66.3054 9.768C67.2574 9.648 68.0734 9.436 68.7534 9.132C69.4334 8.828 69.9654 8.412 70.3494 7.884H66.4734V6.708H70.9014C70.9334 6.604 70.9574 6.5 70.9734 6.396C70.9974 6.284 71.0134 6.168 71.0214 6.048H67.9974V4.908H71.0694V4.26H67.8894V3.912H66.6414V1.14H71.0094V0.0599999H72.5694V1.14H76.9614V3.852H75.7374V4.26H72.5094V4.908H75.6174V6.048H72.4734C72.4654 6.16 72.4534 6.272 72.4374 6.384C72.4214 6.488 72.4014 6.596 72.3774 6.708H77.1654V7.884H73.1574C73.5734 8.364 74.1454 8.764 74.8734 9.084C75.6014 9.404 76.4215 9.616 77.3335 9.72C77.2535 9.816 77.1614 9.948 77.0574 10.116C76.9614 10.284 76.8694 10.456 76.7814 10.632C76.7014 10.808 76.6414 10.956 76.6014 11.076C75.4894 10.868 74.5214 10.52 73.6974 10.032C72.8814 9.544 72.2494 8.928 71.8014 8.184C70.9294 9.664 69.3014 10.628 66.9174 11.076ZM72.5094 3.108H75.5934V2.28H72.5094V3.108ZM68.0334 3.108H71.0694V2.28H68.0334V3.108Z" fill="var(--fill-0, #3D3D5C)"/>
<path d="M80.2254 10.992C80.2174 10.88 80.1974 10.744 80.1654 10.584C80.1414 10.424 80.1094 10.268 80.0694 10.116C80.0374 9.956 80.0014 9.832 79.9614 9.744H80.5494C80.7574 9.744 80.9055 9.696 80.9935 9.6C81.0895 9.496 81.1654 9.312 81.2214 9.048C81.2614 8.872 81.2974 8.64 81.3294 8.352C81.3614 8.064 81.3894 7.76 81.4134 7.44C81.4454 7.12 81.4654 6.816 81.4734 6.528C81.4894 6.232 81.4974 5.992 81.4974 5.808H80.8134C80.7574 6.432 80.6574 7.068 80.5134 7.716C80.3774 8.356 80.1974 8.956 79.9734 9.516C79.7574 10.076 79.4974 10.548 79.1934 10.932C79.0414 10.796 78.8414 10.664 78.5934 10.536C78.3534 10.408 78.1494 10.32 77.9814 10.272C78.5254 9.632 78.9134 8.828 79.1454 7.86C79.3854 6.892 79.5054 5.728 79.5054 4.368V3.288H78.3654V2.064H80.0814V0.0599999H81.4614V2.064H82.9494V2.904C83.1574 2.584 83.3454 2.248 83.5134 1.896C83.6894 1.544 83.8414 1.204 83.9694 0.876C84.0974 0.54 84.1854 0.248 84.2334 0L85.5415 0.336C85.4855 0.544 85.4214 0.752 85.3494 0.96C85.2774 1.168 85.1974 1.376 85.1094 1.584H89.1894V2.748H84.5454C84.4414 2.932 84.3334 3.116 84.2214 3.3C84.1174 3.476 84.0094 3.644 83.8974 3.804H84.8574V4.992L85.5174 4.8V3.168H86.7295V4.452L88.2894 3.996L88.7334 4.176V7.332C88.7334 7.716 88.6134 7.996 88.3734 8.172C88.1334 8.348 87.7414 8.48 87.1974 8.568C87.1574 8.328 87.0854 8.096 86.9814 7.872C86.8854 7.648 86.8054 7.492 86.7414 7.404C86.7414 7.396 86.7534 7.38 86.7774 7.356C86.8174 7.324 86.8334 7.304 86.8254 7.296H87.1255C87.2615 7.296 87.3574 7.276 87.4134 7.236C87.4694 7.188 87.4974 7.1 87.4974 6.972V5.532L86.7295 5.76V8.868H85.5174V6.12L84.8574 6.312V9.3C84.8574 9.412 84.8854 9.492 84.9414 9.54C84.9974 9.588 85.1094 9.612 85.2774 9.612H87.3774C87.5774 9.612 87.7334 9.588 87.8454 9.54C87.9574 9.492 88.0415 9.388 88.0975 9.228C88.1535 9.06 88.1975 8.796 88.2295 8.436C88.3255 8.484 88.4534 8.536 88.6134 8.592C88.7734 8.648 88.9374 8.7 89.1054 8.748C89.2734 8.796 89.4134 8.836 89.5254 8.868C89.4454 9.46 89.3334 9.896 89.1894 10.176C89.0454 10.464 88.8575 10.648 88.6255 10.728C88.3935 10.816 88.0974 10.86 87.7374 10.86H84.7974C84.3574 10.86 84.0454 10.792 83.8614 10.656C83.6854 10.52 83.5975 10.292 83.5975 9.972V6.672L82.7334 6.936C82.7094 7.472 82.6774 7.984 82.6374 8.472C82.5974 8.952 82.5414 9.328 82.4694 9.6C82.3494 10.104 82.1534 10.46 81.8814 10.668C81.6174 10.884 81.2294 10.992 80.7174 10.992H80.2254ZM82.7694 5.604L83.5975 5.364V4.212C83.5415 4.284 83.4854 4.356 83.4294 4.428C83.3734 4.5 83.3134 4.572 83.2494 4.644C83.0974 4.5 82.9094 4.364 82.6854 4.236C82.4694 4.1 82.2814 3.992 82.1214 3.912C82.3054 3.736 82.4894 3.528 82.6734 3.288H80.8854V4.572H82.7814C82.7814 4.724 82.7814 4.888 82.7814 5.064C82.7814 5.232 82.7774 5.412 82.7694 5.604Z" fill="var(--fill-0, #3D3D5C)"/>
<path d="M98.5614 10.596C97.7294 10.5 96.9934 10.256 96.3534 9.864C95.7134 9.472 95.2134 8.964 94.8534 8.34C94.5014 7.716 94.3254 7.004 94.3254 6.204C94.3254 5.628 94.4614 5.04 94.7334 4.44C95.0134 3.84 95.4294 3.308 95.9814 2.844C95.3414 2.948 94.7014 3.06 94.0614 3.18C93.4294 3.3 92.8534 3.412 92.3334 3.516C91.8214 3.62 91.4254 3.708 91.1454 3.78L90.8214 2.232C91.0854 2.216 91.4494 2.18 91.9134 2.124C92.3854 2.068 92.9134 2 93.4974 1.92C94.0894 1.832 94.6974 1.74 95.3214 1.644C95.9534 1.54 96.5614 1.436 97.1454 1.332C97.7374 1.228 98.2655 1.128 98.7295 1.032C99.2015 0.928 99.5695 0.836 99.8335 0.756L100.217 2.22C100.089 2.228 99.9335 2.244 99.7495 2.268C99.5735 2.292 99.3734 2.32 99.1494 2.352C98.7094 2.408 98.2895 2.544 97.8895 2.76C97.4894 2.976 97.1294 3.256 96.8094 3.6C96.4974 3.944 96.2494 4.336 96.0654 4.776C95.8814 5.216 95.7894 5.692 95.7894 6.204C95.7894 6.82 95.9454 7.332 96.2574 7.74C96.5694 8.148 96.9934 8.468 97.5294 8.7C98.0734 8.924 98.6814 9.076 99.3534 9.156C99.2334 9.276 99.1174 9.428 99.0054 9.612C98.8934 9.788 98.7974 9.964 98.7174 10.14C98.6374 10.324 98.5854 10.476 98.5614 10.596ZM100.649 5.088C100.497 4.84 100.293 4.576 100.037 4.296C99.7894 4.016 99.5614 3.792 99.3534 3.624L100.001 3.084C100.121 3.18 100.265 3.32 100.433 3.504C100.609 3.688 100.781 3.876 100.949 4.068C101.117 4.252 101.245 4.412 101.333 4.548L100.649 5.088ZM99.5694 6C99.4174 5.744 99.2174 5.476 98.9694 5.196C98.7214 4.916 98.4935 4.688 98.2854 4.512L98.9454 3.984C99.0654 4.08 99.2094 4.22 99.3774 4.404C99.5454 4.588 99.7094 4.776 99.8694 4.968C100.037 5.16 100.165 5.32 100.253 5.448L99.5694 6Z" fill="var(--fill-0, #3D3D5C)"/>
</g>
<g id="&#231;&#132;&#161;&#230;&#150;&#153;&#227;&#131;&#129;&#227;&#130;&#177;&#227;&#131;&#131;&#227;&#131;&#136;">
<path d="M20.429 40.1235C20.1985 39.6953 19.8856 39.1683 19.4903 38.5425C19.1116 37.9167 18.6998 37.2909 18.2552 36.6651C17.827 36.0393 17.4153 35.5123 17.0201 35.0842L18.9963 33.6514H1.45745V31.2059H4.17473V27.871H0.543456V25.4008H4.17473V22.8564C3.8289 23.2352 3.4913 23.5892 3.16193 23.9186C2.83256 24.248 2.51966 24.5279 2.22323 24.7585C1.95974 24.4785 1.60567 24.1656 1.16102 23.8198C0.732843 23.474 0.345836 23.2187 0 23.054C0.444646 22.7082 0.905761 22.2882 1.38334 21.7942C1.86093 21.2837 2.32204 20.7484 2.76669 20.1885C3.2278 19.6121 3.63128 19.0522 3.97711 18.5087C4.32295 17.9653 4.57821 17.4877 4.74289 17.076L7.53428 17.9406C7.419 18.2041 7.27079 18.4923 7.08964 18.8052C6.92495 19.1016 6.73557 19.4145 6.52148 19.7439H21.7877V22.1894H19.4409V25.4008H22.9981V27.871H19.4409V31.2059H22.257V33.6514H19.1939C19.6221 34.0961 20.0667 34.6148 20.5278 35.2077C21.0054 35.8005 21.4583 36.3934 21.8865 36.9863C22.3147 37.5791 22.6605 38.1061 22.924 38.5672C22.5287 38.7319 22.0841 38.9707 21.59 39.2836C21.096 39.613 20.709 39.8929 20.429 40.1235ZM2.8408 40.1976C2.54436 39.9176 2.15736 39.6294 1.67977 39.333C1.20219 39.053 0.774014 38.8472 0.395241 38.7154C0.806951 38.3531 1.23513 37.9003 1.67977 37.3568C2.12442 36.8134 2.54436 36.237 2.93961 35.6276C3.35132 35.0183 3.68068 34.4337 3.92771 33.8737L6.47207 35.0842C6.17564 35.6935 5.82157 36.3193 5.40986 36.9616C4.99815 37.5874 4.56998 38.1802 4.12533 38.7402C3.68068 39.3001 3.2525 39.7859 2.8408 40.1976ZM13.6111 39.9259C13.5452 39.4483 13.4382 38.8884 13.29 38.2461C13.1582 37.6203 13.01 37.0027 12.8453 36.3934C12.6971 35.7676 12.5407 35.2489 12.376 34.8371L15.0192 34.1208C15.1838 34.4995 15.3568 35.0018 15.5379 35.6276C15.7191 36.237 15.8838 36.8628 16.032 37.505C16.1967 38.1473 16.3202 38.7237 16.4025 39.2342C16.0402 39.2836 15.5709 39.3742 14.9945 39.5059C14.4345 39.6377 13.9734 39.7777 13.6111 39.9259ZM8.44828 40.0494C8.41534 39.5883 8.34947 39.0366 8.25066 38.3943C8.15185 37.7685 8.0448 37.151 7.92952 36.5416C7.81425 35.9158 7.69897 35.3971 7.58369 34.9854L10.2516 34.4419C10.3998 34.8536 10.5398 35.3641 10.6715 35.9735C10.8197 36.5828 10.9432 37.2086 11.042 37.8509C11.1573 38.4931 11.2314 39.053 11.2644 39.5306C11.0338 39.5471 10.7456 39.58 10.3998 39.6294C10.0539 39.6953 9.69987 39.7612 9.33757 39.8271C8.99173 39.8929 8.6953 39.967 8.44828 40.0494ZM6.79321 31.2059H8.37417V27.871H6.79321V31.2059ZM15.2168 31.2059H16.7977V27.871H15.2168V31.2059ZM11.0173 31.2059H12.5736V27.871H11.0173V31.2059ZM6.79321 25.4008H8.37417V22.1894H6.79321V25.4008ZM15.2168 25.4008H16.7977V22.1894H15.2168V25.4008ZM11.0173 25.4008H12.5736V22.1894H11.0173V25.4008Z" fill="var(--fill-0, #F02E4A)"/>
<path d="M20.429 40.1235C20.1985 39.6953 19.8856 39.1683 19.4903 38.5425C19.1116 37.9167 18.6998 37.2909 18.2552 36.6651C17.827 36.0393 17.4153 35.5123 17.0201 35.0842L18.9963 33.6514H1.45745V31.2059H4.17473V27.871H0.543456V25.4008H4.17473V22.8564C3.8289 23.2352 3.4913 23.5892 3.16193 23.9186C2.83256 24.248 2.51966 24.5279 2.22323 24.7585C1.95974 24.4785 1.60567 24.1656 1.16102 23.8198C0.732843 23.474 0.345836 23.2187 0 23.054C0.444646 22.7082 0.905761 22.2882 1.38334 21.7942C1.86093 21.2837 2.32204 20.7484 2.76669 20.1885C3.2278 19.6121 3.63128 19.0522 3.97711 18.5087C4.32295 17.9653 4.57821 17.4877 4.74289 17.076L7.53428 17.9406C7.419 18.2041 7.27079 18.4923 7.08964 18.8052C6.92495 19.1016 6.73557 19.4145 6.52148 19.7439H21.7877V22.1894H19.4409V25.4008H22.9981V27.871H19.4409V31.2059H22.257V33.6514H19.1939C19.6221 34.0961 20.0667 34.6148 20.5278 35.2077C21.0054 35.8005 21.4583 36.3934 21.8865 36.9863C22.3147 37.5791 22.6605 38.1061 22.924 38.5672C22.5287 38.7319 22.0841 38.9707 21.59 39.2836C21.096 39.613 20.709 39.8929 20.429 40.1235ZM2.8408 40.1976C2.54436 39.9176 2.15736 39.6294 1.67977 39.333C1.20219 39.053 0.774014 38.8472 0.395241 38.7154C0.806951 38.3531 1.23513 37.9003 1.67977 37.3568C2.12442 36.8134 2.54436 36.237 2.93961 35.6276C3.35132 35.0183 3.68068 34.4337 3.92771 33.8737L6.47207 35.0842C6.17564 35.6935 5.82157 36.3193 5.40986 36.9616C4.99815 37.5874 4.56998 38.1802 4.12533 38.7402C3.68068 39.3001 3.2525 39.7859 2.8408 40.1976ZM13.6111 39.9259C13.5452 39.4483 13.4382 38.8884 13.29 38.2461C13.1582 37.6203 13.01 37.0027 12.8453 36.3934C12.6971 35.7676 12.5407 35.2489 12.376 34.8371L15.0192 34.1208C15.1838 34.4995 15.3568 35.0018 15.5379 35.6276C15.7191 36.237 15.8838 36.8628 16.032 37.505C16.1967 38.1473 16.3202 38.7237 16.4025 39.2342C16.0402 39.2836 15.5709 39.3742 14.9945 39.5059C14.4345 39.6377 13.9734 39.7777 13.6111 39.9259ZM8.44828 40.0494C8.41534 39.5883 8.34947 39.0366 8.25066 38.3943C8.15185 37.7685 8.0448 37.151 7.92952 36.5416C7.81425 35.9158 7.69897 35.3971 7.58369 34.9854L10.2516 34.4419C10.3998 34.8536 10.5398 35.3641 10.6715 35.9735C10.8197 36.5828 10.9432 37.2086 11.042 37.8509C11.1573 38.4931 11.2314 39.053 11.2644 39.5306C11.0338 39.5471 10.7456 39.58 10.3998 39.6294C10.0539 39.6953 9.69987 39.7612 9.33757 39.8271C8.99173 39.8929 8.6953 39.967 8.44828 40.0494ZM6.79321 31.2059H8.37417V27.871H6.79321V31.2059ZM15.2168 31.2059H16.7977V27.871H15.2168V31.2059ZM11.0173 31.2059H12.5736V27.871H11.0173V31.2059ZM6.79321 25.4008H8.37417V22.1894H6.79321V25.4008ZM15.2168 25.4008H16.7977V22.1894H15.2168V25.4008ZM11.0173 25.4008H12.5736V22.1894H11.0173V25.4008Z" fill="url(#pattern0_0_21)"/>
<path d="M29.8407 39.9506V31.9963C29.3302 32.7539 28.795 33.462 28.235 34.1208C27.6916 34.7795 27.1564 35.3477 26.6294 35.8252C26.3988 35.5288 26.0941 35.2077 25.7154 34.8618C25.3366 34.516 24.9825 34.2525 24.6532 34.0714C25.2131 33.6103 25.7895 33.0421 26.3823 32.3669C26.9917 31.6752 27.5681 30.9424 28.1115 30.1684C28.655 29.3779 29.1161 28.6121 29.4949 27.871H25.5425V25.3267H29.8407V17.5948H32.5333V25.3267H36.1646V27.871H32.5333V28.118C32.8297 28.4804 33.2085 28.9085 33.6696 29.4026C34.1472 29.8802 34.633 30.3413 35.1271 30.7859C35.6211 31.2306 36.0575 31.5929 36.4363 31.8728C37.2597 31.774 38.2313 31.634 39.3512 31.4529C40.471 31.2553 41.5909 31.0494 42.7107 30.8353V22.7329C42.5296 22.8811 42.3155 23.0787 42.0685 23.3257C41.8379 23.5563 41.6074 23.7869 41.3768 24.0174C41.1627 24.248 40.998 24.4456 40.8828 24.6103C40.4216 24.1327 39.8782 23.6057 39.2524 23.0293C38.6266 22.4529 38.009 21.9836 37.3997 21.6213L39.203 19.7439C39.7794 20.1062 40.3887 20.5755 41.031 21.1519C41.6897 21.7118 42.2496 22.2224 42.7107 22.6835V17.5701H45.4774V30.2919C46.0538 30.1601 46.5726 30.0448 47.0337 29.946C47.4948 29.8308 47.8653 29.7237 48.1453 29.6249L48.3182 32.3175C47.9559 32.4163 47.536 32.5233 47.0584 32.6386C46.5808 32.7374 46.0538 32.8527 45.4774 32.9845V39.9506H42.7107V33.5773C41.525 33.8079 40.364 34.0302 39.2277 34.2443C38.0914 34.4419 37.1444 34.5984 36.3869 34.7136L35.9175 32.5892C35.7034 32.8362 35.4894 33.0915 35.2753 33.355C35.0776 33.602 34.9294 33.8161 34.8306 33.9973C34.4683 33.6844 34.0895 33.3221 33.6943 32.9103C33.2991 32.4986 32.9121 32.0622 32.5333 31.6011V39.9506H29.8407ZM40.2405 29.946C39.7794 29.4685 39.2277 28.9579 38.5854 28.4145C37.9431 27.8546 37.3091 27.3934 36.6833 27.0311L38.3878 25.1043C38.783 25.3514 39.203 25.6478 39.6476 25.9936C40.0923 26.323 40.5204 26.6688 40.9322 27.0311C41.3603 27.377 41.7309 27.6981 42.0438 27.9945C41.8791 28.1263 41.6815 28.3157 41.4509 28.5627C41.2203 28.7933 40.9898 29.0403 40.7592 29.3038C40.5451 29.5508 40.3722 29.7649 40.2405 29.946ZM35.1023 24.7338C34.8389 24.5856 34.4765 24.4127 34.0154 24.215C33.5543 24.001 33.1838 23.861 32.9038 23.7951C33.085 23.4657 33.2908 23.0376 33.5214 22.5106C33.7684 21.9671 33.9907 21.4072 34.1884 20.8308C34.386 20.2379 34.526 19.7356 34.6083 19.3239L36.955 20.0156C36.8892 20.312 36.7739 20.6826 36.6092 21.1272C36.461 21.5554 36.2963 22.0083 36.1152 22.4859C35.934 22.947 35.7528 23.3834 35.5717 23.7951C35.3905 24.1903 35.2341 24.5032 35.1023 24.7338ZM27.0493 24.6844C26.967 24.2891 26.827 23.8198 26.6294 23.2763C26.4482 22.7164 26.2424 22.1647 26.0118 21.6213C25.7977 21.0778 25.5836 20.6332 25.3695 20.2873L27.6175 19.398C27.8151 19.7274 28.0292 20.1803 28.2597 20.7567C28.5068 21.3166 28.7291 21.8848 28.9267 22.4612C29.1408 23.0211 29.289 23.4822 29.3714 23.8445C29.042 23.9104 28.6303 24.0339 28.1362 24.215C27.6422 24.3962 27.2799 24.5526 27.0493 24.6844Z" fill="var(--fill-0, #F02E4A)"/>
<path d="M29.8407 39.9506V31.9963C29.3302 32.7539 28.795 33.462 28.235 34.1208C27.6916 34.7795 27.1564 35.3477 26.6294 35.8252C26.3988 35.5288 26.0941 35.2077 25.7154 34.8618C25.3366 34.516 24.9825 34.2525 24.6532 34.0714C25.2131 33.6103 25.7895 33.0421 26.3823 32.3669C26.9917 31.6752 27.5681 30.9424 28.1115 30.1684C28.655 29.3779 29.1161 28.6121 29.4949 27.871H25.5425V25.3267H29.8407V17.5948H32.5333V25.3267H36.1646V27.871H32.5333V28.118C32.8297 28.4804 33.2085 28.9085 33.6696 29.4026C34.1472 29.8802 34.633 30.3413 35.1271 30.7859C35.6211 31.2306 36.0575 31.5929 36.4363 31.8728C37.2597 31.774 38.2313 31.634 39.3512 31.4529C40.471 31.2553 41.5909 31.0494 42.7107 30.8353V22.7329C42.5296 22.8811 42.3155 23.0787 42.0685 23.3257C41.8379 23.5563 41.6074 23.7869 41.3768 24.0174C41.1627 24.248 40.998 24.4456 40.8828 24.6103C40.4216 24.1327 39.8782 23.6057 39.2524 23.0293C38.6266 22.4529 38.009 21.9836 37.3997 21.6213L39.203 19.7439C39.7794 20.1062 40.3887 20.5755 41.031 21.1519C41.6897 21.7118 42.2496 22.2224 42.7107 22.6835V17.5701H45.4774V30.2919C46.0538 30.1601 46.5726 30.0448 47.0337 29.946C47.4948 29.8308 47.8653 29.7237 48.1453 29.6249L48.3182 32.3175C47.9559 32.4163 47.536 32.5233 47.0584 32.6386C46.5808 32.7374 46.0538 32.8527 45.4774 32.9845V39.9506H42.7107V33.5773C41.525 33.8079 40.364 34.0302 39.2277 34.2443C38.0914 34.4419 37.1444 34.5984 36.3869 34.7136L35.9175 32.5892C35.7034 32.8362 35.4894 33.0915 35.2753 33.355C35.0776 33.602 34.9294 33.8161 34.8306 33.9973C34.4683 33.6844 34.0895 33.3221 33.6943 32.9103C33.2991 32.4986 32.9121 32.0622 32.5333 31.6011V39.9506H29.8407ZM40.2405 29.946C39.7794 29.4685 39.2277 28.9579 38.5854 28.4145C37.9431 27.8546 37.3091 27.3934 36.6833 27.0311L38.3878 25.1043C38.783 25.3514 39.203 25.6478 39.6476 25.9936C40.0923 26.323 40.5204 26.6688 40.9322 27.0311C41.3603 27.377 41.7309 27.6981 42.0438 27.9945C41.8791 28.1263 41.6815 28.3157 41.4509 28.5627C41.2203 28.7933 40.9898 29.0403 40.7592 29.3038C40.5451 29.5508 40.3722 29.7649 40.2405 29.946ZM35.1023 24.7338C34.8389 24.5856 34.4765 24.4127 34.0154 24.215C33.5543 24.001 33.1838 23.861 32.9038 23.7951C33.085 23.4657 33.2908 23.0376 33.5214 22.5106C33.7684 21.9671 33.9907 21.4072 34.1884 20.8308C34.386 20.2379 34.526 19.7356 34.6083 19.3239L36.955 20.0156C36.8892 20.312 36.7739 20.6826 36.6092 21.1272C36.461 21.5554 36.2963 22.0083 36.1152 22.4859C35.934 22.947 35.7528 23.3834 35.5717 23.7951C35.3905 24.1903 35.2341 24.5032 35.1023 24.7338ZM27.0493 24.6844C26.967 24.2891 26.827 23.8198 26.6294 23.2763C26.4482 22.7164 26.2424 22.1647 26.0118 21.6213C25.7977 21.0778 25.5836 20.6332 25.3695 20.2873L27.6175 19.398C27.8151 19.7274 28.0292 20.1803 28.2597 20.7567C28.5068 21.3166 28.7291 21.8848 28.9267 22.4612C29.1408 23.0211 29.289 23.4822 29.3714 23.8445C29.042 23.9104 28.6303 24.0339 28.1362 24.215C27.6422 24.3962 27.2799 24.5526 27.0493 24.6844Z" fill="url(#pattern1_0_21)"/>
<path d="M57.7718 39.5971C57.6646 39.3111 57.5126 38.9805 57.316 38.6052C57.1194 38.2119 56.905 37.8366 56.6726 37.4792C56.4403 37.1038 56.2258 36.8179 56.0292 36.6212C58.4778 36.0851 60.3455 35.2361 61.6324 34.0743C62.9371 32.9126 63.6967 31.3398 63.9112 29.3559C62.3562 29.3737 60.8728 29.4005 59.4608 29.4363C58.0488 29.472 56.8424 29.5078 55.8415 29.5435C54.8585 29.5614 54.2151 29.5882 53.9112 29.624L53.6967 26.5409C53.8934 26.5587 54.3044 26.5766 54.93 26.5945C55.5734 26.5945 56.3688 26.5945 57.316 26.5945C58.2633 26.5766 59.3089 26.5587 60.4528 26.5409C61.5966 26.523 62.7762 26.5051 63.9916 26.4872V22.7875C61.8468 23.0914 59.8719 23.2701 58.0667 23.3237C58.031 23.0377 57.9595 22.7071 57.8522 22.3318C57.745 21.9386 57.6199 21.5543 57.4769 21.179C57.3518 20.8036 57.2267 20.5087 57.1016 20.2942C58.2633 20.3121 59.4965 20.2674 60.8013 20.1602C62.106 20.053 63.4107 19.901 64.7155 19.7044C66.0202 19.5078 67.2534 19.2665 68.4152 18.9806C69.5769 18.6767 70.5868 18.3461 71.4447 17.9886L72.7047 20.7232C71.9898 21.0092 71.1676 21.2773 70.2382 21.5275C69.3267 21.7777 68.3616 22.01 67.3428 22.2245V26.4068C68.7369 26.3711 70.0416 26.3353 71.257 26.2996C72.4724 26.2638 73.5001 26.2281 74.3401 26.1923C75.1801 26.1387 75.7163 26.094 75.9487 26.0583V29.2754C75.6806 29.2576 75.1176 29.2486 74.2597 29.2486C73.4196 29.2486 72.3919 29.2576 71.1766 29.2754C69.9612 29.2754 68.6654 29.2844 67.2892 29.3022C67.0747 32.0011 66.1721 34.1816 64.5814 35.8438C62.9907 37.506 60.7208 38.7571 57.7718 39.5971Z" fill="var(--fill-0, #F02E4A)"/>
<path d="M57.7718 39.5971C57.6646 39.3111 57.5126 38.9805 57.316 38.6052C57.1194 38.2119 56.905 37.8366 56.6726 37.4792C56.4403 37.1038 56.2258 36.8179 56.0292 36.6212C58.4778 36.0851 60.3455 35.2361 61.6324 34.0743C62.9371 32.9126 63.6967 31.3398 63.9112 29.3559C62.3562 29.3737 60.8728 29.4005 59.4608 29.4363C58.0488 29.472 56.8424 29.5078 55.8415 29.5435C54.8585 29.5614 54.2151 29.5882 53.9112 29.624L53.6967 26.5409C53.8934 26.5587 54.3044 26.5766 54.93 26.5945C55.5734 26.5945 56.3688 26.5945 57.316 26.5945C58.2633 26.5766 59.3089 26.5587 60.4528 26.5409C61.5966 26.523 62.7762 26.5051 63.9916 26.4872V22.7875C61.8468 23.0914 59.8719 23.2701 58.0667 23.3237C58.031 23.0377 57.9595 22.7071 57.8522 22.3318C57.745 21.9386 57.6199 21.5543 57.4769 21.179C57.3518 20.8036 57.2267 20.5087 57.1016 20.2942C58.2633 20.3121 59.4965 20.2674 60.8013 20.1602C62.106 20.053 63.4107 19.901 64.7155 19.7044C66.0202 19.5078 67.2534 19.2665 68.4152 18.9806C69.5769 18.6767 70.5868 18.3461 71.4447 17.9886L72.7047 20.7232C71.9898 21.0092 71.1676 21.2773 70.2382 21.5275C69.3267 21.7777 68.3616 22.01 67.3428 22.2245V26.4068C68.7369 26.3711 70.0416 26.3353 71.257 26.2996C72.4724 26.2638 73.5001 26.2281 74.3401 26.1923C75.1801 26.1387 75.7163 26.094 75.9487 26.0583V29.2754C75.6806 29.2576 75.1176 29.2486 74.2597 29.2486C73.4196 29.2486 72.3919 29.2576 71.1766 29.2754C69.9612 29.2754 68.6654 29.2844 67.2892 29.3022C67.0747 32.0011 66.1721 34.1816 64.5814 35.8438C62.9907 37.506 60.7208 38.7571 57.7718 39.5971Z" fill="url(#pattern2_0_21)"/>
<path d="M88.013 40.2942C87.7449 39.8831 87.3695 39.4184 86.887 38.9001C86.4044 38.3817 85.9576 37.9885 85.5465 37.7204C87.7806 36.5408 89.4786 35.0663 90.6403 33.2969C91.8021 31.5096 92.4723 29.4274 92.651 27.0502H87.5036C86.8423 27.8724 86.1452 28.632 85.4124 29.3291C84.6796 30.0261 83.9022 30.6606 83.08 31.2325C82.794 30.8929 82.4098 30.4908 81.9272 30.0261C81.4446 29.5614 80.9978 29.2129 80.5867 28.9805C81.9093 28.1226 83.0979 27.086 84.1524 25.8706C85.2069 24.6553 86.1095 23.3416 86.8601 21.9296C87.6287 20.5177 88.2006 19.1146 88.576 17.7205L91.8199 18.6857C91.5518 19.5972 91.2301 20.4908 90.8548 21.3666C90.4973 22.2245 90.0862 23.0646 89.6215 23.8867H102.463V27.0502H96.0022C95.8235 29.9635 95.0639 32.5105 93.7234 34.691C92.4008 36.8715 90.4973 38.7392 88.013 40.2942Z" fill="var(--fill-0, #F02E4A)"/>
<path d="M88.013 40.2942C87.7449 39.8831 87.3695 39.4184 86.887 38.9001C86.4044 38.3817 85.9576 37.9885 85.5465 37.7204C87.7806 36.5408 89.4786 35.0663 90.6403 33.2969C91.8021 31.5096 92.4723 29.4274 92.651 27.0502H87.5036C86.8423 27.8724 86.1452 28.632 85.4124 29.3291C84.6796 30.0261 83.9022 30.6606 83.08 31.2325C82.794 30.8929 82.4098 30.4908 81.9272 30.0261C81.4446 29.5614 80.9978 29.2129 80.5867 28.9805C81.9093 28.1226 83.0979 27.086 84.1524 25.8706C85.2069 24.6553 86.1095 23.3416 86.8601 21.9296C87.6287 20.5177 88.2006 19.1146 88.576 17.7205L91.8199 18.6857C91.5518 19.5972 91.2301 20.4908 90.8548 21.3666C90.4973 22.2245 90.0862 23.0646 89.6215 23.8867H102.463V27.0502H96.0022C95.8235 29.9635 95.0639 32.5105 93.7234 34.691C92.4008 36.8715 90.4973 38.7392 88.013 40.2942Z" fill="url(#pattern3_0_21)"/>
<path d="M111.491 39.329C111.348 38.9537 111.134 38.5247 110.848 38.0422C110.562 37.5417 110.285 37.1574 110.017 36.8893C113.109 36.1565 115.602 34.8518 117.497 32.9752C119.409 31.0985 120.589 28.5516 121.035 25.3344L123.636 25.7634C123.243 28.355 122.492 30.5355 121.384 32.3049C120.294 34.0743 118.909 35.5221 117.229 36.6481C115.566 37.7562 113.654 38.6498 111.491 39.329ZM109.829 31.0985C109.775 30.741 109.659 30.2853 109.481 29.7312C109.302 29.1771 109.096 28.632 108.864 28.0958C108.649 27.5596 108.453 27.1485 108.274 26.8626L110.714 25.9779C110.893 26.2817 111.089 26.7107 111.304 27.2647C111.518 27.8188 111.715 28.3818 111.893 28.9537C112.09 29.5078 112.233 29.9814 112.322 30.3746L109.829 31.0985ZM114.414 30.0797C114.378 29.7223 114.279 29.2665 114.119 28.7124C113.958 28.1405 113.779 27.5864 113.582 27.0502C113.386 26.4962 113.198 26.0762 113.019 25.7902L115.459 24.9859C115.62 25.3076 115.799 25.7455 115.995 26.2996C116.21 26.8536 116.397 27.4166 116.558 27.9886C116.737 28.5426 116.862 29.0163 116.934 29.4095L114.414 30.0797Z" fill="var(--fill-0, #F02E4A)"/>
<path d="M111.491 39.329C111.348 38.9537 111.134 38.5247 110.848 38.0422C110.562 37.5417 110.285 37.1574 110.017 36.8893C113.109 36.1565 115.602 34.8518 117.497 32.9752C119.409 31.0985 120.589 28.5516 121.035 25.3344L123.636 25.7634C123.243 28.355 122.492 30.5355 121.384 32.3049C120.294 34.0743 118.909 35.5221 117.229 36.6481C115.566 37.7562 113.654 38.6498 111.491 39.329ZM109.829 31.0985C109.775 30.741 109.659 30.2853 109.481 29.7312C109.302 29.1771 109.096 28.632 108.864 28.0958C108.649 27.5596 108.453 27.1485 108.274 26.8626L110.714 25.9779C110.893 26.2817 111.089 26.7107 111.304 27.2647C111.518 27.8188 111.715 28.3818 111.893 28.9537C112.09 29.5078 112.233 29.9814 112.322 30.3746L109.829 31.0985ZM114.414 30.0797C114.378 29.7223 114.279 29.2665 114.119 28.7124C113.958 28.1405 113.779 27.5864 113.582 27.0502C113.386 26.4962 113.198 26.0762 113.019 25.7902L115.459 24.9859C115.62 25.3076 115.799 25.7455 115.995 26.2996C116.21 26.8536 116.397 27.4166 116.558 27.9886C116.737 28.5426 116.862 29.0163 116.934 29.4095L114.414 30.0797Z" fill="url(#pattern4_0_21)"/>
<path d="M131.849 39.8116V18.2031H135.12V26.3264L136.327 24.6106C136.756 24.9144 137.319 25.2987 138.016 25.7634C138.73 26.2102 139.49 26.6749 140.294 27.1575C141.099 27.6222 141.876 28.0511 142.627 28.4443C143.377 28.8375 144.012 29.1325 144.53 29.3291C144.316 29.5257 144.066 29.8116 143.78 30.187C143.512 30.5444 143.261 30.9198 143.029 31.313C142.797 31.6883 142.609 32.01 142.466 32.2781C142.037 32.0458 141.501 31.7508 140.857 31.3934C140.232 31.0181 139.562 30.607 138.847 30.1601C138.15 29.7133 137.47 29.2754 136.809 28.8465C136.166 28.3997 135.603 27.9975 135.12 27.6401V39.8116H131.849Z" fill="var(--fill-0, #F02E4A)"/>
<path d="M131.849 39.8116V18.2031H135.12V26.3264L136.327 24.6106C136.756 24.9144 137.319 25.2987 138.016 25.7634C138.73 26.2102 139.49 26.6749 140.294 27.1575C141.099 27.6222 141.876 28.0511 142.627 28.4443C143.377 28.8375 144.012 29.1325 144.53 29.3291C144.316 29.5257 144.066 29.8116 143.78 30.187C143.512 30.5444 143.261 30.9198 143.029 31.313C142.797 31.6883 142.609 32.01 142.466 32.2781C142.037 32.0458 141.501 31.7508 140.857 31.3934C140.232 31.0181 139.562 30.607 138.847 30.1601C138.15 29.7133 137.47 29.2754 136.809 28.8465C136.166 28.3997 135.603 27.9975 135.12 27.6401V39.8116H131.849Z" fill="url(#pattern5_0_21)"/>
</g>
<g id="&#232;&#180;&#136;&#229;&#145;&#136;&#228;&#184;&#173;">
<path d="M57.2909 53.2946V48.6H59.072C58.9248 48.3331 58.7406 48.0431 58.5197 47.7301C58.308 47.408 58.1101 47.1456 57.926 46.9431L59.2653 46.3356C59.385 46.4645 59.5369 46.6532 59.721 46.9017C59.9051 47.1502 60.0846 47.4034 60.2595 47.6611C60.4344 47.9096 60.5632 48.1075 60.6461 48.2548C60.5448 48.2916 60.4344 48.3423 60.3147 48.4067C60.195 48.4711 60.0754 48.5356 59.9557 48.6H61.3503C61.4884 48.3883 61.6356 48.1398 61.7921 47.8544C61.9486 47.5598 62.0959 47.2745 62.234 46.9983C62.372 46.713 62.4779 46.4783 62.5515 46.2942L64.0289 46.7774C63.9185 47.0075 63.7666 47.2975 63.5733 47.6473C63.38 47.9879 63.1867 48.3055 62.9934 48.6H64.954V53.2946H57.2909ZM53.5352 58.9971C53.3787 58.905 53.167 58.7946 52.9001 58.6657C52.6331 58.5461 52.4122 58.4632 52.2373 58.4172C52.4122 58.2055 52.5871 57.9477 52.762 57.644C52.9369 57.331 53.098 57.0088 53.2452 56.6774C53.3925 56.346 53.503 56.0515 53.5766 55.7937H52.9553V46.9017H56.8352V55.7937H53.6319L54.8745 56.1942C54.7917 56.4795 54.6766 56.7971 54.5293 57.1469C54.3821 57.4875 54.221 57.8189 54.0461 58.141C53.8712 58.4632 53.7009 58.7486 53.5352 58.9971ZM58.0779 58.9143V53.9159H64.1118V58.9143H58.0779ZM56.5176 58.9833C56.3519 58.7624 56.1817 58.4954 56.0068 58.1825C55.8319 57.8787 55.6662 57.5611 55.5097 57.2297C55.3624 56.8891 55.2381 56.5762 55.1369 56.2908L56.3519 55.849C56.4808 56.2448 56.6741 56.6682 56.9319 57.1193C57.1896 57.5611 57.4427 57.9339 57.6913 58.2377C57.5164 58.3297 57.3139 58.4448 57.0837 58.5829C56.8628 58.7302 56.6741 58.8636 56.5176 58.9833ZM59.5967 57.7958H62.593V56.9122H59.5967V57.7958ZM59.5967 55.8904H62.593V55.0343H59.5967V55.8904ZM54.2532 54.4544H55.5373V53.1427H54.2532V54.4544ZM54.2532 51.9276H55.5373V50.685H54.2532V51.9276ZM54.2532 49.4699H55.5373V48.2272H54.2532V49.4699ZM61.8197 52.2038H63.4628V51.4168H61.8197V52.2038ZM61.8197 50.4778H63.4628V49.7046H61.8197V50.4778ZM58.7959 52.2038H60.3837V51.4168H58.7959V52.2038ZM58.7959 50.4778H60.3837V49.7046H58.7959V50.4778Z" fill="var(--fill-0, #3D3D5C)"/>
<path d="M66.5419 58.5829V57.1745H71.7335V56.0837H67.9503V54.7996H71.7335V53.764H67.1771V52.3971H78.0712V53.764H73.4733V54.7996H77.298V56.0837H73.4733V57.1745H78.6787V58.5829H66.5419ZM68.3231 51.4858V46.7912H76.9252V51.4858H68.3231ZM70.049 50.0498H75.1854V48.2272H70.049V50.0498Z" fill="var(--fill-0, #3D3D5C)"/>
<path d="M85.5825 59.0109V54.5649H80.5704V49.0695H85.5825V46.4322H87.2808V49.0695H92.293V54.5649H87.2808V59.0109H85.5825ZM87.2808 52.9632H90.5808V50.5883H87.2808V52.9632ZM82.3101 52.9632H85.5825V50.5883H82.3101V52.9632Z" fill="var(--fill-0, #3D3D5C)"/>
</g>
<g id="Group 604">
<path id="Vector 304" d="M115.765 52.5042L111.124 53.0019L115.029 50.6116L115.765 52.5042Z" fill="var(--fill-0, #FFE27B)"/>
<path id="Vector 305" d="M113.551 46.7032L109.132 50.9701L110.99 45.2641L113.551 46.7032Z" fill="var(--fill-0, #8DD7F7)"/>
</g>
</g>
<defs>
<pattern id="pattern0_0_21" patternUnits="userSpaceOnUse" patternTransform="matrix(20 0 0 20 0 17.076)" preserveAspectRatio="none" viewBox="0 0 20 20" width="1" height="1">
<g id="pattern0_0_21_inner">
<g id="Frame 628512" opacity="0.5" clip-path="url(#clip0_0_21)">
<rect id="Rectangle 4124" x="17.9141" y="-3.20361" width="7.47968" height="29.8657" transform="rotate(45 17.9141 -3.20361)" fill="var(--fill-0, #F898A6)"/>
</g>
</g>
</pattern><pattern id="pattern1_0_21" patternUnits="userSpaceOnUse" patternTransform="matrix(20 0 0 20 0 17.076)" preserveAspectRatio="none" viewBox="0 0 20 20" width="1" height="1">
<g id="pattern1_0_21_inner">
<g id="Frame 628512" opacity="0.5" clip-path="url(#clip1_0_21)">
<rect id="Rectangle 4124" x="17.9141" y="-3.20361" width="7.47968" height="29.8657" transform="rotate(45 17.9141 -3.20361)" fill="var(--fill-0, #F898A6)"/>
</g>
</g>
</pattern><pattern id="pattern2_0_21" patternUnits="userSpaceOnUse" patternTransform="matrix(20 0 0 20 0 17.076)" preserveAspectRatio="none" viewBox="0 0 20 20" width="1" height="1">
<g id="pattern2_0_21_inner">
<g id="Frame 628512" opacity="0.5" clip-path="url(#clip2_0_21)">
<rect id="Rectangle 4124" x="17.9141" y="-3.20361" width="7.47968" height="29.8657" transform="rotate(45 17.9141 -3.20361)" fill="var(--fill-0, #F898A6)"/>
</g>
</g>
</pattern><pattern id="pattern3_0_21" patternUnits="userSpaceOnUse" patternTransform="matrix(20 0 0 20 0 17.076)" preserveAspectRatio="none" viewBox="0 0 20 20" width="1" height="1">
<g id="pattern3_0_21_inner">
<g id="Frame 628512" opacity="0.5" clip-path="url(#clip3_0_21)">
<rect id="Rectangle 4124" x="17.9141" y="-3.20361" width="7.47968" height="29.8657" transform="rotate(45 17.9141 -3.20361)" fill="var(--fill-0, #F898A6)"/>
</g>
</g>
</pattern><pattern id="pattern4_0_21" patternUnits="userSpaceOnUse" patternTransform="matrix(20 0 0 20 0 17.076)" preserveAspectRatio="none" viewBox="0 0 20 20" width="1" height="1">
<g id="pattern4_0_21_inner">
<g id="Frame 628512" opacity="0.5" clip-path="url(#clip4_0_21)">
<rect id="Rectangle 4124" x="17.9141" y="-3.20361" width="7.47968" height="29.8657" transform="rotate(45 17.9141 -3.20361)" fill="var(--fill-0, #F898A6)"/>
</g>
</g>
</pattern><pattern id="pattern5_0_21" patternUnits="userSpaceOnUse" patternTransform="matrix(20 0 0 20 0 17.076)" preserveAspectRatio="none" viewBox="0 0 20 20" width="1" height="1">
<g id="pattern5_0_21_inner">
<g id="Frame 628512" opacity="0.5" clip-path="url(#clip5_0_21)">
<rect id="Rectangle 4124" x="17.9141" y="-3.20361" width="7.47968" height="29.8657" transform="rotate(45 17.9141 -3.20361)" fill="var(--fill-0, #F898A6)"/>
</g>
</g>
</pattern><clipPath id="clip0_0_21">
<rect width="20" height="20" fill="white"/>
</clipPath>
<clipPath id="clip1_0_21">
<rect width="20" height="20" fill="white"/>
</clipPath>
<clipPath id="clip2_0_21">
<rect width="20" height="20" fill="white"/>
</clipPath>
<clipPath id="clip3_0_21">
<rect width="20" height="20" fill="white"/>
</clipPath>
<clipPath id="clip4_0_21">
<rect width="20" height="20" fill="white"/>
</clipPath>
<clipPath id="clip5_0_21">
<rect width="20" height="20" fill="white"/>
</clipPath>
</defs>
</svg>
