<svg preserveAspectRatio="none" width="100%" height="100%" overflow="visible" style="display: block;" viewBox="0 0 13.3333 13.0044" fill="none" xmlns="http://www.w3.org/2000/svg">
<path id="Vector" d="M6.66668 0C2.98333 0 0 2.98333 0 6.66667C0 9.61667 1.90833 12.1083 4.55833 12.9917C4.89167 13.05 5.01667 12.85 5.01667 12.675C5.01667 12.5167 5.00833 11.9917 5.00833 11.4333C3.33333 11.7417 2.9 11.025 2.76667 10.65C2.69167 10.4583 2.36667 9.86667 2.08333 9.70833C1.85 9.58333 1.51667 9.275 2.075 9.26667C2.6 9.25833 2.975 9.75 3.1 9.95C3.7 10.9583 4.65833 10.675 5.04167 10.5C5.1 10.0667 5.275 9.775 5.46668 9.60833C3.98333 9.44167 2.43333 8.86667 2.43333 6.31667C2.43333 5.59167 2.69167 4.99167 3.11667 4.525C3.05 4.35833 2.81667 3.675 3.18333 2.75833C3.18333 2.75833 3.74167 2.58333 5.01667 3.44167C5.55001 3.29167 6.11668 3.21667 6.68335 3.21667C7.25001 3.21667 7.81668 3.29167 8.35001 3.44167C9.62501 2.575 10.1833 2.75833 10.1833 2.75833C10.55 3.675 10.3167 4.35833 10.25 4.525C10.675 4.99167 10.9333 5.58333 10.9333 6.31667C10.9333 8.875 9.37501 9.44167 7.89168 9.60833C8.13335 9.81667 8.34168 10.2167 8.34168 10.8417C8.34168 11.7333 8.33335 12.45 8.33335 12.675C8.33335 12.85 8.45835 13.0583 8.79168 12.9917C11.5053 12.0755 13.3326 9.53087 13.3333 6.66667C13.3333 2.98333 10.35 0 6.66668 0Z" fill="var(--fill-0, white)"/>
</svg>
