<svg preserveAspectRatio="none" width="100%" height="100%" overflow="visible" style="display: block;" viewBox="0 0 145 32" fill="none" xmlns="http://www.w3.org/2000/svg">
<g id="Vector">
<path d="M12.4137 17.3846C11.6486 16.6208 11.6486 15.3792 12.4137 14.6126L21.0187 6.0217C22.3986 4.64404 22.3986 2.4109 21.0187 1.03324C19.6388 -0.344415 17.402 -0.344415 16.0221 1.03324L6.03158 11.0102C4.65166 9.6325 2.41486 9.6325 1.03494 11.0102C-0.34498 12.3878 -0.34498 14.621 1.03494 15.9986L10.1936 25.1423L15.1902 20.1538L12.4137 17.3818V17.3846ZM2.63743 15.0181C2.51223 14.9431 2.38982 14.8598 2.28132 14.7515C1.59136 14.0627 1.59414 12.9461 2.28132 12.2573C2.97128 11.5684 4.0869 11.5684 4.77964 12.2573C5.46682 12.9433 5.4696 14.0599 4.77964 14.7515C4.19818 15.332 3.31347 15.4153 2.63743 15.0181ZM17.274 4.78014C16.6954 4.20241 16.6119 3.3136 17.0097 2.63866C17.0848 2.51367 17.1683 2.39146 17.274 2.28591C17.964 1.59708 19.0824 1.59986 19.7723 2.28591C20.4623 2.97474 20.4623 4.08853 19.7723 4.78014C19.0852 5.46619 17.9668 5.46897 17.274 4.78014Z" fill="var(--fill-0, #3D3D5C)"/>
<path d="M31.0092 15.9986L21.8506 6.85496L16.8539 11.8434L19.6305 14.6154C20.3955 15.3792 20.3955 16.6208 19.6305 17.3874L11.0254 25.9783C9.64552 27.356 9.64552 29.5891 11.0254 30.9668C12.4054 32.3444 14.6422 32.3444 16.0221 30.9668L26.0126 20.9926C27.3925 22.3703 29.6293 22.3703 31.0092 20.9926C32.3891 19.615 32.3891 17.3818 31.0092 16.0042V15.9986ZM12.2746 29.7141C11.5846 29.0253 11.5874 27.9087 12.2746 27.2199C12.9646 26.531 14.0802 26.531 14.7729 27.2199C15.3572 27.8031 15.4378 28.6836 15.04 29.3586C14.9649 29.4836 14.8814 29.6058 14.7729 29.7141C14.0857 30.4001 12.9646 30.4001 12.2746 29.7141ZM27.2617 19.74C26.5718 19.0511 26.5746 17.9346 27.2617 17.2457C27.8432 16.6652 28.7307 16.5791 29.404 16.9791C29.5319 17.0513 29.6516 17.1374 29.7601 17.2457C30.4472 17.9318 30.45 19.0483 29.7601 19.74C29.0729 20.426 27.9517 20.426 27.2617 19.74Z" fill="var(--fill-0, #3D3D5C)"/>
<path d="M42.6801 25.97V7.67156H39.1691V4.81903H49.2264V7.67156H45.7154V25.97H42.6801Z" fill="var(--fill-0, #3D3D5C)"/>
<path d="M60.7971 19.5844H54.7878V21.6342C54.7878 22.1092 54.9213 22.4758 55.1884 22.7341C55.4555 22.9924 55.8172 23.1202 56.2734 23.1202C56.8493 23.1202 57.2305 22.9508 57.4197 22.6147C57.6088 22.2786 57.7229 21.9425 57.7619 21.6037H60.7971C60.7971 22.9313 60.3909 24.0007 59.5758 24.8117C59.1779 25.2284 58.7022 25.5533 58.1486 25.7922C57.5921 26.0311 56.969 26.1477 56.2734 26.1477C55.322 26.1477 54.5124 25.9505 53.8474 25.5533C53.1825 25.1562 52.6734 24.634 52.3145 23.9785C52.0947 23.5813 51.9473 23.1286 51.8694 22.6119C51.7887 22.0981 51.7497 21.5342 51.7497 20.9176V15.9569C51.7497 15.3431 51.7887 14.7793 51.8694 14.2627C51.9473 13.7488 52.0975 13.2933 52.3145 12.8961C52.6706 12.2434 53.1825 11.7184 53.8474 11.3212C54.5124 10.9241 55.3192 10.7268 56.2734 10.7268C56.9662 10.7268 57.5977 10.8463 58.1625 11.0824C58.7272 11.3212 59.2085 11.6462 59.6064 12.0628C60.3993 12.9544 60.7971 14.0738 60.7971 15.4181V19.5844ZM54.7878 17.2068H57.7619V15.4848C57.7619 14.9098 57.6283 14.4793 57.3612 14.1932C57.0941 13.9071 56.7325 13.7627 56.2762 13.7627C55.8199 13.7627 55.4583 13.9071 55.1912 14.1932C54.9241 14.4793 54.7906 14.9098 54.7906 15.4848V17.2068H54.7878Z" fill="var(--fill-0, #3D3D5C)"/>
<path d="M68.4729 21.6342C68.4729 22.1092 68.6065 22.4758 68.8735 22.7341C69.1406 22.9924 69.5023 23.1202 69.9586 23.1202C70.5345 23.1202 70.9156 22.9508 71.1048 22.6147C71.294 22.2786 71.408 21.9425 71.447 21.6037H74.4822C74.4822 22.9313 74.0761 24.0007 73.2609 24.8117C72.8631 25.2284 72.3873 25.5533 71.8337 25.7922C71.2773 26.0311 70.6541 26.1477 69.9586 26.1477C69.0071 26.1477 68.1975 25.9505 67.5326 25.5533C66.8676 25.1562 66.3585 24.634 65.9996 23.9785C65.7798 23.5813 65.6324 23.1286 65.5517 22.6119C65.471 22.0981 65.4321 21.5342 65.4321 20.9176V15.9569C65.4321 15.3431 65.471 14.7793 65.5517 14.2627C65.6324 13.7488 65.7798 13.2933 65.9996 12.8961C66.3557 12.2434 66.8676 11.7184 67.5326 11.3212C68.1975 10.9241 69.0043 10.7268 69.9586 10.7268C70.6513 10.7268 71.2828 10.8463 71.8476 11.0824C72.4124 11.3212 72.8937 11.6462 73.2915 12.0628C74.0844 12.9544 74.4822 14.1127 74.4822 15.5375H71.447C71.447 14.9237 71.3134 14.4737 71.0464 14.1849C70.7793 13.8988 70.4176 13.7544 69.9613 13.7544C69.5051 13.7544 69.1434 13.8988 68.8763 14.1849C68.6092 14.471 68.4757 14.9015 68.4757 15.4764V21.6342H68.4729Z" fill="var(--fill-0, #3D3D5C)"/>
<path d="M79.095 25.97V4.8218H82.1302V12.3656H82.1886C82.5058 11.8906 82.887 11.499 83.3349 11.1935C83.78 10.8879 84.3503 10.7324 85.0459 10.7324C85.4214 10.7324 85.7998 10.7963 86.1754 10.9241C86.551 11.0518 86.8904 11.2657 87.1881 11.5629C87.4858 11.8601 87.725 12.2406 87.9031 12.7072C88.0811 13.1739 88.1702 13.7433 88.1702 14.4154V25.97H85.1349V15.5431C85.1349 14.9904 85.0069 14.5543 84.7482 14.2349C84.4894 13.9182 84.1222 13.7599 83.6465 13.7599C83.0706 13.7599 82.6727 13.9377 82.4557 14.2932C82.2359 14.6487 82.1274 15.1654 82.1274 15.8375V25.9672H79.0922H79.095V25.97Z" fill="var(--fill-0, #3D3D5C)"/>
<path d="M95.6679 25.97V7.67156H92.1569V4.81903H102.214V7.67156H98.7032V25.97H95.6679Z" fill="var(--fill-0, #3D3D5C)"/>
<path d="M105.007 25.97V10.9102H108.043V12.5128C108.657 11.9601 109.264 11.524 109.857 11.2046C110.452 10.8879 111.186 10.7296 112.057 10.7296V13.9377C111.76 13.8182 111.451 13.7599 111.134 13.7599C110.816 13.7599 110.474 13.8155 110.107 13.9238C109.74 14.0321 109.409 14.2154 109.111 14.4737C108.794 14.7321 108.535 15.0681 108.338 15.4848C108.14 15.9014 108.04 16.4152 108.04 17.0291V25.97H105.005H105.007Z" fill="var(--fill-0, #3D3D5C)"/>
<path d="M120.659 24.4257H120.601C120.203 24.9812 119.803 25.4061 119.396 25.7033C118.99 26.0005 118.42 26.1477 117.685 26.1477C117.329 26.1477 116.965 26.0922 116.6 25.9839C116.233 25.8755 115.88 25.6728 115.543 25.3756C115.207 25.0978 114.934 24.6979 114.725 24.1729C114.517 23.6479 114.414 22.9702 114.414 22.137C114.414 21.3037 114.483 20.5371 114.622 19.8955C114.761 19.2511 115.02 18.7123 115.396 18.2762C115.752 17.8596 116.239 17.5485 116.854 17.3402C117.468 17.1318 118.253 17.0291 119.204 17.0291H119.533C119.652 17.0291 119.761 17.0402 119.861 17.0596C119.961 17.0791 120.078 17.0902 120.217 17.0902C120.356 17.0902 120.504 17.1013 120.662 17.1207V15.5459C120.662 15.032 120.554 14.6043 120.334 14.2682C120.114 13.9321 119.719 13.7627 119.143 13.7627C118.745 13.7627 118.384 13.8905 118.058 14.1488C117.73 14.4071 117.518 14.7821 117.418 15.2765H114.472C114.55 13.9293 115.009 12.8406 115.841 12.0101C116.239 11.6129 116.714 11.3018 117.268 11.074C117.822 10.8463 118.448 10.7324 119.143 10.7324C119.778 10.7324 120.373 10.8324 120.929 11.0296C121.486 11.2268 121.97 11.524 122.387 11.9212C122.785 12.3184 123.102 12.8128 123.339 13.4072C123.578 14.0016 123.695 14.6959 123.695 15.4875V25.9727H120.659V24.4257ZM120.659 19.4955C120.323 19.4372 120.045 19.4067 119.828 19.4067C119.174 19.4067 118.612 19.5594 118.147 19.8677C117.68 20.176 117.449 20.7343 117.449 21.5454C117.449 22.1203 117.588 22.5842 117.866 22.9425C118.144 23.298 118.531 23.4785 119.026 23.4785C119.522 23.4785 119.944 23.3091 120.231 22.973C120.518 22.6369 120.662 22.162 120.662 21.5481V19.4983L120.659 19.4955Z" fill="var(--fill-0, #3D3D5C)"/>
<path d="M128.157 7.8521V4.8218H131.192V7.8521H128.157ZM128.157 25.97V10.9102H131.192V25.97H128.157Z" fill="var(--fill-0, #3D3D5C)"/>
<path d="M135.922 25.97V10.9102H138.957V12.3656H139.018C139.336 11.8906 139.717 11.499 140.165 11.1935C140.61 10.8879 141.18 10.7324 141.876 10.7324C142.251 10.7324 142.63 10.7963 143.005 10.9241C143.381 11.0518 143.72 11.2657 144.018 11.5629C144.316 11.8601 144.552 12.2406 144.733 12.7072C144.911 13.1739 145 13.7433 145 14.4154V25.97H141.965V15.5431C141.965 14.9904 141.834 14.5543 141.578 14.2349C141.319 13.9182 140.952 13.7599 140.476 13.7599C139.9 13.7599 139.505 13.9377 139.286 14.2932C139.069 14.6487 138.957 15.1654 138.957 15.8375V25.9672H135.922V25.97Z" fill="var(--fill-0, #3D3D5C)"/>
</g>
</svg>
