<svg width="231" height="32" viewBox="0 0 231 32" fill="none" xmlns="http://www.w3.org/2000/svg">
<g clip-path="url(#clip0_98_1185)">
<g clip-path="url(#clip1_98_1185)">
<g clip-path="url(#clip2_98_1185)">
<mask id="mask0_98_1185" style="mask-type:luminance" maskUnits="userSpaceOnUse" x="-1" y="0" width="146" height="32">
<path d="M144.761 0H-0.00195312V32H144.761V0Z" fill="white"/>
</mask>
<g mask="url(#mask0_98_1185)">
<path d="M12.3914 17.3847C11.6276 16.6208 11.6276 15.3792 12.3914 14.6127L20.9823 6.02169C22.36 4.64404 22.36 2.41091 20.9823 1.03324C19.6047 -0.344415 17.3715 -0.344415 15.9939 1.03324L6.01974 11.0102C4.64209 9.63249 2.40895 9.63249 1.03129 11.0102C-0.346368 12.3878 -0.346368 14.6209 1.03129 15.9987L10.1749 25.1423L15.1634 20.1539L12.3914 17.3819V17.3847ZM2.63115 15.0181C2.50617 14.9432 2.38395 14.8599 2.27562 14.7515C1.58679 14.0627 1.58958 12.9461 2.27562 12.2573C2.96446 11.5684 4.07825 11.5684 4.76986 12.2573C5.4559 12.9433 5.45869 14.0599 4.76986 14.7515C4.18935 15.332 3.30609 15.4153 2.63115 15.0181ZM17.2438 4.78015C16.666 4.20241 16.5827 3.3136 16.9799 2.63865C17.0548 2.51367 17.1382 2.39145 17.2438 2.28591C17.9326 1.59708 19.0491 1.59987 19.738 2.28591C20.4268 2.97475 20.4268 4.08853 19.738 4.78015C19.0519 5.46619 17.9354 5.46897 17.2438 4.78015Z" fill="#3D3D5C"/>
<path d="M30.9569 15.9987L21.8133 6.85498L16.8248 11.8434L19.5968 14.6154C20.3607 15.3792 20.3607 16.6208 19.5968 17.3874L11.0059 25.9783C9.62824 27.356 9.62824 29.5891 11.0059 30.9668C12.3836 32.3444 14.6167 32.3444 15.9944 30.9668L25.9685 20.9927C27.3461 22.3703 29.5793 22.3703 30.9569 20.9927C32.3347 19.615 32.3347 17.3819 30.9569 16.0042V15.9987ZM12.253 29.7142C11.5642 29.0252 11.567 27.9087 12.253 27.2199C12.9418 26.5311 14.0556 26.5311 14.7472 27.2199C15.3305 27.8032 15.4111 28.6836 15.0139 29.3586C14.9389 29.4836 14.8556 29.6058 14.7472 29.7142C14.0612 30.4002 12.9418 30.4002 12.253 29.7142ZM27.2156 19.74C26.5268 19.0511 26.5296 17.9346 27.2156 17.2458C27.7961 16.6652 28.6821 16.5791 29.3543 16.9791C29.4821 17.0514 29.6015 17.1375 29.7099 17.2458C30.3959 17.9318 30.3987 19.0484 29.7099 19.74C29.0237 20.426 27.9044 20.426 27.2156 19.74Z" fill="#3D3D5C"/>
<path d="M42.6087 25.97V7.67156H39.1035V4.81903H49.1443V7.67156H45.6391V25.97H42.6087Z" fill="#3D3D5C"/>
<path d="M60.6946 19.5844H54.6952V21.6343C54.6952 22.1092 54.8285 22.4759 55.0952 22.7341C55.3618 22.9924 55.7229 23.1203 56.1784 23.1203C56.7533 23.1203 57.1338 22.9508 57.3228 22.6147C57.5116 22.2787 57.6254 21.9425 57.6644 21.6037H60.6946C60.6946 22.9313 60.2892 24.0007 59.4753 24.8117C59.0781 25.2284 58.6032 25.5533 58.0505 25.7923C57.4949 26.0311 56.8728 26.1477 56.1784 26.1477C55.2285 26.1477 54.4202 25.9505 53.7564 25.5533C53.0925 25.1561 52.5842 24.634 52.226 23.9785C52.0065 23.5813 51.8593 23.1285 51.7816 22.6119C51.701 22.0981 51.6621 21.5343 51.6621 20.9176V15.9569C51.6621 15.3431 51.701 14.7793 51.7816 14.2627C51.8593 13.7488 52.0093 13.2933 52.226 12.8961C52.5814 12.2434 53.0925 11.7184 53.7564 11.3212C54.4202 10.9241 55.2257 10.7268 56.1784 10.7268C56.87 10.7268 57.5005 10.8463 58.0644 11.0824C58.6282 11.3212 59.1086 11.6462 59.5058 12.0628C60.2974 12.9544 60.6946 14.0737 60.6946 15.4181V19.5844ZM54.6952 17.2068H57.6644V15.4848C57.6644 14.9099 57.531 14.4793 57.2644 14.1932C56.9978 13.9071 56.6366 13.7627 56.1812 13.7627C55.7257 13.7627 55.3646 13.9071 55.098 14.1932C54.8313 14.4793 54.698 14.9099 54.698 15.4848V17.2068H54.6952Z" fill="#3D3D5C"/>
<path d="M68.358 21.6343C68.358 22.1092 68.4913 22.4759 68.758 22.7341C69.0247 22.9924 69.3857 23.1203 69.8412 23.1203C70.4163 23.1203 70.7968 22.9508 70.9856 22.6147C71.1745 22.2787 71.2884 21.9425 71.3272 21.6037H74.3576C74.3576 22.9313 73.952 24.0007 73.1381 24.8117C72.7411 25.2284 72.266 25.5533 71.7133 25.7923C71.1579 26.0311 70.5356 26.1477 69.8412 26.1477C68.8913 26.1477 68.0831 25.9505 67.4192 25.5533C66.7555 25.1561 66.2472 24.634 65.8888 23.9785C65.6695 23.5813 65.5221 23.1285 65.4416 22.6119C65.3611 22.0981 65.3223 21.5343 65.3223 20.9176V15.9569C65.3223 15.3431 65.3611 14.7793 65.4416 14.2627C65.5221 13.7488 65.6695 13.2933 65.8888 12.8961C66.2444 12.2434 66.7555 11.7184 67.4192 11.3212C68.0831 10.9241 68.8885 10.7268 69.8412 10.7268C70.5329 10.7268 71.1633 10.8463 71.7272 11.0824C72.2911 11.3212 72.7716 11.6462 73.1688 12.0628C73.9604 12.9544 74.3576 14.1127 74.3576 15.5376H71.3272C71.3272 14.9237 71.1939 14.4737 70.9273 14.1849C70.6607 13.8988 70.2996 13.7544 69.844 13.7544C69.3885 13.7544 69.0275 13.8988 68.7608 14.1849C68.4941 14.4709 68.3608 14.9015 68.3608 15.4764V21.6343H68.358Z" fill="#3D3D5C"/>
<path d="M78.9637 25.97V4.82181H81.994V12.3656H82.0524C82.3691 11.8906 82.7496 11.499 83.1967 11.1935C83.6412 10.888 84.2105 10.7324 84.9049 10.7324C85.2799 10.7324 85.6576 10.7963 86.0325 10.9241C86.4076 11.0518 86.7464 11.2657 87.0436 11.5629C87.3408 11.8601 87.5797 12.2406 87.7575 12.7072C87.9352 13.1739 88.0241 13.7432 88.0241 14.4155V25.97H84.9937V15.5431C84.9937 14.9904 84.866 14.5543 84.6077 14.2349C84.3495 13.9183 83.9828 13.7599 83.5079 13.7599C82.9328 13.7599 82.5357 13.9377 82.3191 14.2932C82.0996 14.6487 81.9913 15.1653 81.9913 15.8375V25.9672H78.9609H78.9637V25.97Z" fill="#3D3D5C"/>
<path d="M95.5092 25.97V7.67156H92.0039V4.81903H102.045V7.67156H98.5395V25.97H95.5092Z" fill="#3D3D5C"/>
<path d="M104.833 25.97V10.9101H107.863V12.5128C108.477 11.9601 109.082 11.524 109.674 11.2046C110.268 10.8879 111.002 10.7296 111.871 10.7296V13.9377C111.574 13.8183 111.266 13.7599 110.949 13.7599C110.632 13.7599 110.291 13.8155 109.924 13.9237C109.557 14.0321 109.227 14.2155 108.93 14.4737C108.613 14.732 108.355 15.0681 108.158 15.4848C107.96 15.9013 107.86 16.4152 107.86 17.0291V25.97H104.83H104.833Z" fill="#3D3D5C"/>
<path d="M120.46 24.4256H120.402C120.005 24.9812 119.605 25.4061 119.199 25.7033C118.794 26.0005 118.224 26.1477 117.491 26.1477C117.136 26.1477 116.772 26.0921 116.408 25.9839C116.041 25.8756 115.688 25.6728 115.352 25.3756C115.016 25.0979 114.744 24.6979 114.536 24.1729C114.327 23.648 114.225 22.9703 114.225 22.1369C114.225 21.3037 114.294 20.5371 114.433 19.8955C114.572 19.2511 114.83 18.7123 115.205 18.2761C115.561 17.8596 116.047 17.5485 116.661 17.3401C117.274 17.1319 118.058 17.0291 119.008 17.0291H119.335C119.455 17.0291 119.563 17.0401 119.663 17.0596C119.763 17.0791 119.88 17.0901 120.019 17.0901C120.158 17.0901 120.305 17.1013 120.463 17.1208V15.5459C120.463 15.032 120.355 14.6043 120.135 14.2683C119.916 13.9321 119.521 13.7627 118.946 13.7627C118.549 13.7627 118.188 13.8904 117.863 14.1488C117.536 14.4071 117.324 14.782 117.224 15.2764H114.283C114.361 13.9293 114.819 12.8405 115.65 12.0101C116.047 11.6129 116.522 11.3018 117.074 11.074C117.627 10.8463 118.252 10.7324 118.946 10.7324C119.58 10.7324 120.174 10.8324 120.73 11.0296C121.285 11.2268 121.768 11.524 122.185 11.9212C122.582 12.3184 122.899 12.8128 123.135 13.4072C123.374 14.0016 123.49 14.696 123.49 15.4876V25.9728H120.46V24.4256ZM120.46 19.4955C120.124 19.4372 119.846 19.4067 119.63 19.4067C118.977 19.4067 118.416 19.5595 117.952 19.8677C117.486 20.176 117.255 20.7343 117.255 21.5453C117.255 22.1203 117.394 22.5841 117.672 22.9424C117.949 23.298 118.335 23.4785 118.83 23.4785C119.324 23.4785 119.746 23.3091 120.032 22.9731C120.319 22.6369 120.463 22.162 120.463 21.5481V19.4983L120.46 19.4955Z" fill="#3D3D5C"/>
<path d="M127.945 7.8521V4.82181H130.976V7.8521H127.945ZM127.945 25.97V10.9102H130.976V25.97H127.945Z" fill="#3D3D5C"/>
<path d="M135.697 25.97V10.9102H138.728V12.3656H138.789C139.107 11.8906 139.487 11.499 139.933 11.1935C140.379 10.8879 140.948 10.7324 141.641 10.7324C142.017 10.7324 142.395 10.7963 142.769 10.924C143.144 11.0518 143.484 11.2657 143.78 11.5629C144.077 11.8601 144.313 12.2406 144.495 12.7072C144.672 13.1738 144.761 13.7432 144.761 14.4155V25.97H141.731V15.5431C141.731 14.9904 141.6 14.5543 141.345 14.2349C141.087 13.9183 140.72 13.7599 140.245 13.7599C139.669 13.7599 139.276 13.9377 139.056 14.2932C138.84 14.6487 138.728 15.1653 138.728 15.8375V25.9672H135.697V25.97Z" fill="#3D3D5C"/>
</g>
</g>
</g>
</g>
<path d="M153.33 4.64005H157.662C159.01 4.64005 160.935 4.70423 162.347 5.98783C163.984 7.49608 164.08 9.87075 164.08 10.8335V20.7493C164.08 22.2897 163.92 23.9263 162.636 25.3382C161.224 26.8786 159.363 27.1032 158.112 27.1032H153.33V4.64005ZM156.539 7.78489V23.9584H157.983C158.657 23.9584 159.491 23.8621 160.133 23.1882C160.807 22.4501 160.871 21.2949 160.871 20.5568V10.6088C160.871 9.96702 160.775 9.16477 160.262 8.52296C159.652 7.78489 158.978 7.78489 158.176 7.78489H156.539Z" fill="#147ADB"/>
<path d="M170.825 27.1032V11.1865H174.034V27.1032H170.825ZM170.825 5.08931H174.034V8.23415H170.825V5.08931Z" fill="#147ADB"/>
<path d="M180.709 11.1865H183.918V12.8872L183.982 12.9193C185.298 11.2827 187.063 10.9297 188.186 10.9297V14.3634C186.646 14.1067 183.918 14.4917 183.918 17.9896V27.1032H180.709V11.1865Z" fill="#147ADB"/>
<path d="M196.306 20.3322V22.3859C196.306 22.8673 196.338 23.3807 196.723 23.7658C196.98 24.0546 197.429 24.2151 197.943 24.2151C198.488 24.2151 198.905 24.0225 199.226 23.5412C199.419 23.2203 199.515 22.8031 199.515 22.4501H202.724V22.5785C202.724 23.7658 202.499 25.3382 200.927 26.4614C200.125 27.039 199.034 27.3599 197.943 27.3599C196.466 27.3599 195.086 26.7502 194.252 25.8196C193.129 24.5681 193.097 22.9315 193.097 21.9688V15.8716C193.097 14.7485 193.322 13.176 194.669 12.0208C195.407 11.379 196.498 10.9297 197.846 10.9297C199.226 10.9297 200.381 11.379 201.184 12.085C202.596 13.3044 202.788 14.9089 202.788 16.1604V20.3322H196.306ZM196.306 17.8612H199.579V15.7754C199.579 15.3582 199.515 14.9089 199.13 14.5238C198.873 14.2671 198.456 14.0746 197.943 14.0746C197.397 14.0746 196.948 14.2992 196.691 14.6201C196.37 15.0052 196.306 15.4865 196.306 15.9037V17.8612Z" fill="#147ADB"/>
<path d="M218.848 16H215.639V15.9358C215.639 15.5507 215.575 15.1015 215.286 14.6843C215.061 14.3634 214.644 14.0746 214.002 14.0746C213.617 14.0746 213.136 14.1708 212.751 14.6201C212.366 15.0694 212.302 15.6149 212.302 16.1604V22.3218C212.302 22.771 212.398 23.3166 212.687 23.6696C212.847 23.8621 213.232 24.2151 214.002 24.2151C214.452 24.2151 214.933 24.1188 215.286 23.6696C215.607 23.2524 215.639 22.6748 215.639 22.3859V22.3539H218.848V22.6427C218.848 24.536 217.95 25.6591 217.244 26.2689C216.538 26.8465 215.479 27.3599 214.035 27.3599C212.59 27.3599 211.211 26.8786 210.344 25.9801C209.061 24.6644 209.093 23.124 209.093 21.7441V16.2567C209.093 14.9731 209.221 13.3365 210.569 12.1171C211.243 11.5074 212.302 10.9297 213.874 10.9297C215.414 10.9297 216.762 11.4432 217.564 12.3096C218.431 13.2081 218.848 14.6522 218.848 15.9037V16Z" fill="#147ADB"/>
<path d="M225.13 6.34083H228.339V11.1865H230.393V13.7537H228.339V22.4822C228.339 22.8031 228.371 23.477 228.789 23.83C229.141 24.1188 229.687 24.1188 229.976 24.1188H230.393V27.1032H229.527C228.596 27.1032 227.056 27.0711 226.061 25.9801C225.162 25.0173 225.13 23.7337 225.13 22.771V13.7537H223.494V11.1865H225.13V6.34083Z" fill="#147ADB"/>
<defs>
<clipPath id="clip0_98_1185">
<rect width="145.33" height="32" fill="white"/>
</clipPath>
<clipPath id="clip1_98_1185">
<rect width="145.33" height="32" fill="white"/>
</clipPath>
<clipPath id="clip2_98_1185">
<rect width="145.333" height="32" fill="white" transform="translate(-0.00195312)"/>
</clipPath>
</defs>
</svg>
