<svg preserveAspectRatio="none" width="100%" height="100%" overflow="visible" style="display: block;" viewBox="0 0 117.725 26.0232" fill="none" xmlns="http://www.w3.org/2000/svg">
<g id="Vector">
<path d="M10.0786 14.1376C9.45745 13.5164 9.45745 12.5068 10.0786 11.8834L17.065 4.897C18.1853 3.77665 18.1853 1.96061 17.065 0.84026C15.9446 -0.280087 14.1286 -0.280087 13.0082 0.84026L4.897 8.95374C3.77665 7.83339 1.96061 7.83339 0.84026 8.95374C-0.280087 10.0741 -0.280087 11.8901 0.84026 13.0105L8.27611 20.4463L12.3329 16.3896L10.0786 14.1353V14.1376ZM2.14131 12.2131C2.03966 12.1522 1.94028 12.0844 1.85219 11.9963C1.29201 11.4361 1.29427 10.5281 1.85219 9.96793C2.41236 9.40775 3.31812 9.40775 3.88056 9.96793C4.43847 10.5258 4.44073 11.4339 3.88056 11.9963C3.40848 12.4684 2.69019 12.5361 2.14131 12.2131ZM14.0247 3.88733C13.5548 3.41751 13.4871 2.69471 13.8101 2.14583C13.8711 2.04418 13.9388 1.9448 14.0247 1.85896C14.5848 1.29879 15.4929 1.30105 16.053 1.85896C16.6132 2.41914 16.6132 3.3249 16.053 3.88733C15.4951 4.44525 14.5871 4.44751 14.0247 3.88733Z" fill="var(--fill-0, #3D3D5C)"/>
<path d="M25.1762 13.0105L17.7403 5.57463L13.6836 9.63137L15.9378 11.8856C16.559 12.5068 16.559 13.5164 15.9378 14.1399L8.95148 21.1262C7.83114 22.2466 7.83114 24.0626 8.95148 25.183C10.0718 26.3033 11.8879 26.3033 13.0082 25.183L21.1194 17.0717C22.2398 18.1921 24.0558 18.1921 25.1762 17.0717C26.2965 15.9514 26.2965 14.1353 25.1762 13.015V13.0105ZM9.96567 24.1643C9.40549 23.6041 9.40775 22.6961 9.96567 22.1359C10.5258 21.5757 11.4316 21.5757 11.994 22.1359C12.4684 22.6102 12.5339 23.3263 12.2109 23.8751C12.1499 23.9768 12.0821 24.0762 11.994 24.1643C11.4361 24.7222 10.5258 24.7222 9.96567 24.1643ZM22.1336 16.053C21.5735 15.4929 21.5757 14.5848 22.1336 14.0247C22.6057 13.5526 23.3263 13.4826 23.8729 13.8078C23.9768 13.8666 24.0739 13.9366 24.162 14.0247C24.7199 14.5826 24.7222 15.4906 24.162 16.053C23.6041 16.611 22.6938 16.611 22.1336 16.053Z" fill="var(--fill-0, #3D3D5C)"/>
<path d="M34.6517 21.1194V6.23871H31.8011V3.91896H39.9666V6.23871H37.116V21.1194H34.6517Z" fill="var(--fill-0, #3D3D5C)"/>
<path d="M49.3608 15.9265H44.4818V17.5935C44.4818 17.9798 44.5903 18.2779 44.8071 18.488C45.0239 18.6981 45.3176 18.802 45.688 18.802C46.1556 18.802 46.465 18.6642 46.6186 18.3909C46.7722 18.1175 46.8648 17.8442 46.8965 17.5687H49.3608C49.3608 18.6484 49.031 19.518 48.3692 20.1775C48.0462 20.5164 47.6599 20.7806 47.2104 20.9749C46.7587 21.1691 46.2527 21.264 45.688 21.264C44.9155 21.264 44.2582 21.1036 43.7184 20.7806C43.1785 20.4576 42.7652 20.033 42.4738 19.4999C42.2954 19.1769 42.1756 18.8087 42.1124 18.3886C42.0469 17.9707 42.0153 17.5122 42.0153 17.0108V12.9766C42.0153 12.4774 42.0469 12.0189 42.1124 11.5988C42.1756 11.1809 42.2976 10.8104 42.4738 10.4874C42.7629 9.95663 43.1785 9.52973 43.7184 9.20672C44.2582 8.88372 44.9133 8.72335 45.688 8.72335C46.2505 8.72335 46.7632 8.82048 47.2217 9.01247C47.6803 9.20672 48.071 9.471 48.394 9.80981C49.0378 10.5349 49.3608 11.4452 49.3608 12.5384V15.9265ZM44.4818 13.993H46.8965V12.5926C46.8965 12.125 46.788 11.7749 46.5712 11.5423C46.3544 11.3096 46.0607 11.1922 45.6903 11.1922C45.3198 11.1922 45.0262 11.3096 44.8094 11.5423C44.5925 11.7749 44.4841 12.125 44.4841 12.5926V13.993H44.4818Z" fill="var(--fill-0, #3D3D5C)"/>
<path d="M55.5927 17.5935C55.5927 17.9798 55.7011 18.2779 55.918 18.488C56.1348 18.6981 56.4284 18.802 56.7989 18.802C57.2665 18.802 57.5759 18.6642 57.7295 18.3909C57.8831 18.1175 57.9757 17.8442 58.0073 17.5687H60.4716C60.4716 18.6484 60.1419 19.518 59.48 20.1775C59.157 20.5164 58.7708 20.7806 58.3213 20.9749C57.8695 21.1691 57.3636 21.264 56.7989 21.264C56.0264 21.264 55.3691 21.1036 54.8292 20.7806C54.2894 20.4576 53.876 20.033 53.5847 19.4999C53.4062 19.1769 53.2865 18.8087 53.221 18.3886C53.1555 17.9707 53.1239 17.5122 53.1239 17.0108V12.9766C53.1239 12.4774 53.1555 12.0189 53.221 11.5988C53.2865 11.1809 53.4062 10.8104 53.5847 10.4874C53.8738 9.95663 54.2894 9.52973 54.8292 9.20672C55.3691 8.88372 56.0241 8.72335 56.7989 8.72335C57.3613 8.72335 57.8741 8.82048 58.3326 9.01247C58.7911 9.20672 59.1819 9.471 59.5049 9.80981C60.1486 10.5349 60.4716 11.4768 60.4716 12.6355H58.0073C58.0073 12.1363 57.8989 11.7704 57.6821 11.5355C57.4652 11.3029 57.1716 11.1854 56.8011 11.1854C56.4307 11.1854 56.1371 11.3029 55.9202 11.5355C55.7034 11.7682 55.595 12.1183 55.595 12.5858V17.5935H55.5927Z" fill="var(--fill-0, #3D3D5C)"/>
<path d="M64.2167 21.1194V3.92122H66.681V10.056H66.7284C66.9859 9.66977 67.2954 9.35128 67.659 9.10282C68.0204 8.85436 68.4835 8.72787 69.0482 8.72787C69.3531 8.72787 69.6603 8.77982 69.9652 8.88372C70.2702 8.98762 70.5457 9.16155 70.7874 9.40324C71.0291 9.64492 71.2234 9.95437 71.3679 10.3338C71.5125 10.7133 71.5848 11.1764 71.5848 11.723V21.1194H69.1204V12.64C69.1204 12.1906 69.0165 11.8359 68.8065 11.5762C68.5964 11.3187 68.2983 11.1899 67.912 11.1899C67.4444 11.1899 67.1214 11.3345 66.9453 11.6236C66.7668 11.9127 66.6787 12.3329 66.6787 12.8795V21.1172H64.2144H64.2167V21.1194Z" fill="var(--fill-0, #3D3D5C)"/>
<path d="M77.6721 21.1194V6.23871H74.8216V3.91896H82.987V6.23871H80.1364V21.1194H77.6721Z" fill="var(--fill-0, #3D3D5C)"/>
<path d="M85.2548 21.1194V8.87243H87.7191V10.1757C88.2183 9.72624 88.7107 9.37161 89.1918 9.11186C89.6752 8.85436 90.2715 8.72561 90.9785 8.72561V11.3345C90.7368 11.2374 90.4861 11.1899 90.2286 11.1899C89.9711 11.1899 89.6933 11.2351 89.3951 11.3232C89.097 11.4113 88.8282 11.5604 88.5865 11.7704C88.329 11.9805 88.1189 12.2538 87.9585 12.5926C87.7982 12.9314 87.7168 13.3493 87.7168 13.8485V21.1194H85.2525H85.2548Z" fill="var(--fill-0, #3D3D5C)"/>
<path d="M97.9626 19.8636H97.9152C97.5922 20.3153 97.2669 20.6609 96.9371 20.9026C96.6074 21.1443 96.1443 21.264 95.548 21.264C95.2589 21.264 94.963 21.2188 94.6671 21.1307C94.3689 21.0426 94.082 20.8778 93.8087 20.6361C93.5354 20.4102 93.3141 20.0849 93.1447 19.658C92.9753 19.2311 92.8917 18.68 92.8917 18.0024C92.8917 17.3247 92.9481 16.7013 93.0611 16.1795C93.174 15.6555 93.3841 15.2173 93.689 14.8627C93.9782 14.5239 94.3734 14.2709 94.8726 14.1015C95.3718 13.9321 96.0088 13.8485 96.7813 13.8485H97.0478C97.1449 13.8485 97.233 13.8575 97.3143 13.8733C97.3957 13.8891 97.4905 13.8982 97.6035 13.8982C97.7164 13.8982 97.8361 13.9072 97.9649 13.923V12.6423C97.9649 12.2244 97.8768 11.8766 97.6983 11.6033C97.5199 11.33 97.1991 11.1922 96.7316 11.1922C96.4086 11.1922 96.1149 11.2961 95.8507 11.5061C95.5841 11.7162 95.4125 12.0211 95.3311 12.4232H92.9391C93.0024 11.3277 93.3751 10.4423 94.0504 9.7669C94.3734 9.44389 94.7597 9.19091 95.2092 9.00569C95.6587 8.82047 96.1669 8.72787 96.7316 8.72787C97.2466 8.72787 97.73 8.80918 98.1817 8.96955C98.6335 9.12993 99.0265 9.37161 99.3653 9.69462C99.6883 10.0176 99.9458 10.4197 100.138 10.9031C100.332 11.3864 100.427 11.9511 100.427 12.5949V21.1217H97.9626V19.8636ZM97.9626 15.8543C97.6893 15.8068 97.4634 15.782 97.2872 15.782C96.7564 15.782 96.3002 15.9062 95.9229 16.1569C95.5435 16.4077 95.356 16.8617 95.356 17.5212C95.356 17.9888 95.4689 18.366 95.6948 18.6574C95.9207 18.9465 96.2347 19.0933 96.6367 19.0933C97.0388 19.0933 97.3821 18.9556 97.6148 18.6822C97.8474 18.4089 97.9649 18.0227 97.9649 17.5235V15.8565L97.9626 15.8543Z" fill="var(--fill-0, #3D3D5C)"/>
<path d="M104.05 6.38553V3.92122H106.514V6.38553H104.05ZM104.05 21.1194V8.87243H106.514V21.1194H104.05Z" fill="var(--fill-0, #3D3D5C)"/>
<path d="M110.354 21.1194V8.87243H112.819V10.056H112.868C113.126 9.66977 113.435 9.35128 113.799 9.10282C114.16 8.85436 114.623 8.72787 115.188 8.72787C115.493 8.72787 115.8 8.77982 116.105 8.88372C116.41 8.98762 116.685 9.16155 116.927 9.40324C117.169 9.64492 117.361 9.95437 117.508 10.3338C117.652 10.7133 117.725 11.1764 117.725 11.723V21.1194H115.26V12.64C115.26 12.1906 115.154 11.8359 114.946 11.5762C114.736 11.3187 114.438 11.1899 114.052 11.1899C113.584 11.1899 113.263 11.3345 113.085 11.6236C112.909 11.9127 112.819 12.3329 112.819 12.8795V21.1172H110.354V21.1194Z" fill="var(--fill-0, #3D3D5C)"/>
</g>
</svg>
