<svg preserveAspectRatio="none" width="100%" height="100%" overflow="visible" style="display: block;" viewBox="0 0 49.9893 38.7014" fill="none" xmlns="http://www.w3.org/2000/svg">
<path id="Vector" opacity="0.5" d="M4.43905 35.3655C1.55077 32.2709 0 28.7974 0 23.1674C0 13.2648 6.88677 4.38743 16.9066 0L19.4092 3.89825C10.059 9.00477 8.23151 15.6282 7.50109 19.8048C9.00653 19.019 10.9772 18.7425 12.9092 18.9234C17.9677 19.3965 21.9546 23.5882 21.9546 28.7974C21.9546 34.2672 17.5614 38.7014 12.1423 38.7014C9.134 38.7014 6.25724 37.3137 4.43905 35.3655ZM32.4738 35.3655C29.5856 32.2709 28.0348 28.7974 28.0348 23.1674C28.0348 13.2648 34.9215 4.38743 44.9414 0L47.4441 3.89825C38.0936 9.00477 36.2663 15.6282 35.5357 19.8048C37.0412 19.019 39.012 18.7425 40.9439 18.9234C46.0025 19.3965 49.9893 23.5882 49.9893 28.7974C49.9893 34.2672 45.5963 38.7014 40.1772 38.7014C37.1688 38.7014 34.2921 37.3137 32.4738 35.3655Z" fill="var(--fill-0, #FFE27B)"/>
</svg>
